Combat.ufo
<glyph name="exclam" format="1">
  <advance width="229"/>
  <unicode hex="0021"/>
  <outline>
    <contour>
      <point x="115" y="-8" type="curve" smooth="yes"/>
      <point x="72" y="-8"/>
      <point x="36" y="28"/>
      <point x="36" y="71" type="curve" smooth="yes"/>
      <point x="36" y="116"/>
      <point x="72" y="152"/>
      <point x="115" y="152" type="curve" smooth="yes"/>
      <point x="160" y="152"/>
      <point x="196" y="116"/>
      <point x="196" y="71" type="curve" smooth="yes"/>
      <point x="196" y="28"/>
      <point x="160" y="-8"/>
    </contour>
    <contour>
      <point x="179" y="229" type="line"/>
      <point x="199" y="700" type="line"/>
      <point x="30" y="700" type="line"/>
      <point x="51" y="229" type="line"/>
    </contour>
  </outline>
</glyph>
<glyph name="numbersign" format="1">
  <advance width="805"/>
  <unicode hex="0023"/>
  <outline>
    <contour>
      <point x="775" y="522" type="line"/>
      <point x="649" y="522" type="line"/>
      <point x="714" y="701" type="line"/>
      <point x="607" y="701" type="line"/>
      <point x="540" y="522" type="line"/>
      <point x="391" y="522" type="line"/>
      <point x="456" y="701" type="line"/>
      <point x="349" y="701" type="line"/>
      <point x="282" y="522" type="line"/>
      <point x="156" y="521" type="line"/>
      <point x="119" y="421" type="line"/>
      <point x="246" y="421" type="line"/>
      <point x="193" y="279" type="line"/>
      <point x="68" y="279" type="line"/>
      <point x="30" y="179" type="line"/>
      <point x="156" y="179" type="line"/>
      <point x="90" y="0" type="line"/>
      <point x="198" y="0" type="line"/>
      <point x="264" y="179" type="line"/>
      <point x="414" y="179" type="line"/>
      <point x="349" y="0" type="line"/>
      <point x="456" y="0" type="line"/>
      <point x="523" y="179" type="line"/>
      <point x="649" y="179" type="line"/>
      <point x="685" y="280" type="line"/>
      <point x="559" y="280" type="line"/>
      <point x="611" y="421" type="line"/>
      <point x="737" y="421" type="line"/>
    </contour>
    <contour>
      <point x="301" y="279" type="line"/>
      <point x="353" y="421" type="line"/>
      <point x="504" y="421" type="line"/>
      <point x="452" y="280" type="line"/>
    </contour>
  </outline>
</glyph>
<glyph name="percent" format="1">
  <advance width="700"/>
  <unicode hex="0025"/>
  <outline>
    <contour>
      <point x="122" y="433" type="curve" smooth="yes"/>
      <point x="104" y="440"/>
      <point x="88" y="451"/>
      <point x="74" y="465" type="curve" smooth="yes"/>
      <point x="61" y="479"/>
      <point x="50" y="495"/>
      <point x="42" y="512" type="curve" smooth="yes"/>
      <point x="34" y="531"/>
      <point x="30" y="550"/>
      <point x="30" y="571" type="curve" smooth="yes"/>
      <point x="30" y="591"/>
      <point x="34" y="610"/>
      <point x="42" y="629" type="curve" smooth="yes"/>
      <point x="50" y="647"/>
      <point x="61" y="663"/>
      <point x="74" y="676" type="curve" smooth="yes"/>
      <point x="88" y="690"/>
      <point x="104" y="701"/>
      <point x="122" y="708" type="curve" smooth="yes"/>
      <point x="140" y="716"/>
      <point x="160" y="720"/>
      <point x="180" y="720" type="curve" smooth="yes"/>
      <point x="200" y="720"/>
      <point x="220" y="716"/>
      <point x="238" y="708" type="curve" smooth="yes"/>
      <point x="256" y="701"/>
      <point x="272" y="690"/>
      <point x="286" y="676" type="curve" smooth="yes"/>
      <point x="299" y="663"/>
      <point x="310" y="647"/>
      <point x="318" y="629" type="curve" smooth="yes"/>
      <point x="326" y="610"/>
      <point x="330" y="591"/>
      <point x="330" y="571" type="curve" smooth="yes"/>
      <point x="330" y="550"/>
      <point x="326" y="531"/>
      <point x="318" y="512" type="curve" smooth="yes"/>
      <point x="310" y="495"/>
      <point x="299" y="479"/>
      <point x="286" y="465" type="curve" smooth="yes"/>
      <point x="272" y="451"/>
      <point x="256" y="440"/>
      <point x="238" y="433" type="curve" smooth="yes"/>
      <point x="220" y="425"/>
      <point x="200" y="421"/>
      <point x="180" y="421" type="curve" smooth="yes"/>
      <point x="160" y="421"/>
      <point x="140" y="425"/>
    </contour>
    <contour>
      <point x="120" y="571" type="curve" smooth="yes"/>
      <point x="120" y="537"/>
      <point x="147" y="510"/>
      <point x="180" y="510" type="curve" smooth="yes"/>
      <point x="213" y="510"/>
      <point x="240" y="537"/>
      <point x="240" y="571" type="curve" smooth="yes"/>
      <point x="240" y="604"/>
      <point x="213" y="631"/>
      <point x="180" y="631" type="curve" smooth="yes"/>
      <point x="147" y="631"/>
      <point x="120" y="604"/>
    </contour>
    <contour>
      <point x="462" y="-10" type="curve" smooth="yes"/>
      <point x="444" y="-3"/>
      <point x="428" y="8"/>
      <point x="414" y="22" type="curve" smooth="yes"/>
      <point x="401" y="36"/>
      <point x="390" y="52"/>
      <point x="382" y="69" type="curve" smooth="yes"/>
      <point x="374" y="88"/>
      <point x="370" y="107"/>
      <point x="370" y="128" type="curve" smooth="yes"/>
      <point x="370" y="148"/>
      <point x="374" y="167"/>
      <point x="382" y="186" type="curve" smooth="yes"/>
      <point x="390" y="204"/>
      <point x="401" y="220"/>
      <point x="414" y="233" type="curve" smooth="yes"/>
      <point x="428" y="247"/>
      <point x="444" y="258"/>
      <point x="462" y="265" type="curve" smooth="yes"/>
      <point x="480" y="273"/>
      <point x="500" y="277"/>
      <point x="520" y="277" type="curve" smooth="yes"/>
      <point x="540" y="277"/>
      <point x="560" y="273"/>
      <point x="578" y="265" type="curve" smooth="yes"/>
      <point x="596" y="258"/>
      <point x="612" y="247"/>
      <point x="626" y="233" type="curve" smooth="yes"/>
      <point x="639" y="220"/>
      <point x="650" y="204"/>
      <point x="658" y="186" type="curve" smooth="yes"/>
      <point x="666" y="167"/>
      <point x="670" y="148"/>
      <point x="670" y="128" type="curve" smooth="yes"/>
      <point x="670" y="107"/>
      <point x="666" y="88"/>
      <point x="658" y="69" type="curve" smooth="yes"/>
      <point x="650" y="52"/>
      <point x="639" y="36"/>
      <point x="626" y="22" type="curve" smooth="yes"/>
      <point x="612" y="8"/>
      <point x="596" y="-3"/>
      <point x="578" y="-10" type="curve" smooth="yes"/>
      <point x="560" y="-18"/>
      <point x="540" y="-22"/>
      <point x="520" y="-22" type="curve" smooth="yes"/>
      <point x="500" y="-22"/>
      <point x="480" y="-18"/>
    </contour>
    <contour>
      <point x="460" y="128" type="curve" smooth="yes"/>
      <point x="460" y="94"/>
      <point x="487" y="67"/>
      <point x="520" y="67" type="curve" smooth="yes"/>
      <point x="553" y="67"/>
      <point x="580" y="94"/>
      <point x="580" y="128" type="curve" smooth="yes"/>
      <point x="580" y="161"/>
      <point x="553" y="188"/>
      <point x="520" y="188" type="curve" smooth="yes"/>
      <point x="487" y="188"/>
      <point x="460" y="161"/>
    </contour>
    <contour>
      <point x="31" y="0" type="line"/>
      <point x="522" y="698" type="line"/>
      <point x="668" y="698" type="line"/>
      <point x="178" y="0" type="line"/>
    </contour>
  </outline>
</glyph>
<glyph name="ampersand" format="1">
  <advance width="775"/>
  <unicode hex="0026"/>
  <outline>
    <contour>
      <point x="611" y="215" type="curve"/>
      <point x="609" y="205" type="line"/>
      <point x="612" y="204"/>
      <point x="614" y="203"/>
      <point x="618" y="199" type="curve" smooth="yes"/>
      <point x="620" y="197"/>
      <point x="621" y="196"/>
      <point x="622" y="194" type="curve" smooth="yes"/>
      <point x="634" y="178"/>
      <point x="631" y="162"/>
      <point x="616" y="147" type="curve" smooth="yes"/>
      <point x="601" y="134"/>
      <point x="569" y="137"/>
      <point x="545" y="164" type="curve"/>
      <point x="546" y="167" type="line"/>
      <point x="560" y="194"/>
      <point x="593" y="267"/>
      <point x="544" y="345" type="curve"/>
      <point x="467" y="344" type="line"/>
      <point x="494" y="308"/>
      <point x="492" y="253"/>
      <point x="477" y="236" type="curve"/>
      <point x="477" y="236"/>
      <point x="414" y="300"/>
      <point x="353" y="363" type="curve"/>
      <point x="367" y="369"/>
      <point x="377" y="373"/>
      <point x="377" y="373" type="curve"/>
      <point x="508" y="420"/>
      <point x="503" y="537"/>
      <point x="503" y="537" type="curve"/>
      <point x="498" y="685"/>
      <point x="370" y="711"/>
      <point x="298" y="712" type="curve" smooth="yes"/>
      <point x="280" y="712"/>
      <point x="254" y="711"/>
      <point x="237" y="708" type="curve" smooth="yes"/>
      <point x="149" y="695"/>
      <point x="91" y="635"/>
      <point x="83" y="568" type="curve" smooth="yes"/>
      <point x="77" y="511"/>
      <point x="94" y="452"/>
      <point x="148" y="401" type="curve" smooth="yes"/>
      <point x="174" y="376" type="line"/>
      <point x="165" y="372"/>
      <point x="156" y="368"/>
      <point x="143" y="362" type="curve" smooth="yes"/>
      <point x="27" y="307"/>
      <point x="30" y="187"/>
      <point x="30" y="187" type="curve"/>
      <point x="35" y="28"/>
      <point x="190" y="-12"/>
      <point x="277" y="-12" type="curve" smooth="yes"/>
      <point x="298" y="-12"/>
      <point x="330" y="-11"/>
      <point x="350" y="-8" type="curve" smooth="yes"/>
      <point x="407" y="-1"/>
      <point x="441" y="20"/>
      <point x="478" y="54" type="curve"/>
      <point x="541" y="-12"/>
      <point x="635" y="-27"/>
      <point x="690" y="6" type="curve" smooth="yes"/>
      <point x="696" y="9"/>
      <point x="702" y="15"/>
      <point x="708" y="20" type="curve" smooth="yes"/>
      <point x="757" y="64"/>
      <point x="755" y="140"/>
      <point x="716" y="183" type="curve" smooth="yes"/>
      <point x="678" y="225"/>
      <point x="634" y="225"/>
    </contour>
    <contour>
      <point x="231" y="561" type="curve"/>
      <point x="231" y="561" type="line"/>
      <point x="240" y="581"/>
      <point x="260" y="599"/>
      <point x="290" y="600" type="curve" smooth="yes"/>
      <point x="357" y="602"/>
      <point x="375" y="546"/>
      <point x="370" y="498" type="curve"/>
      <point x="370" y="498"/>
      <point x="367" y="462"/>
      <point x="333" y="436" type="curve"/>
      <point x="333" y="436"/>
      <point x="323" y="428"/>
      <point x="301" y="418" type="curve"/>
      <point x="275" y="445"/>
      <point x="255" y="468"/>
      <point x="246" y="479" type="curve" smooth="yes"/>
      <point x="220" y="508"/>
      <point x="224" y="536"/>
      <point x="227" y="550" type="curve" smooth="yes"/>
      <point x="229" y="556"/>
      <point x="230" y="560"/>
    </contour>
    <contour>
      <point x="274" y="111" type="curve" smooth="yes"/>
      <point x="222" y="117"/>
      <point x="189" y="163"/>
      <point x="188" y="210" type="curve"/>
      <point x="188" y="210"/>
      <point x="184" y="284"/>
      <point x="239" y="310" type="curve"/>
      <point x="394" y="147" type="line"/>
      <point x="372" y="122"/>
      <point x="335" y="111"/>
      <point x="306" y="110" type="curve" smooth="yes"/>
      <point x="301" y="110"/>
      <point x="287" y="110"/>
    </contour>
  </outline>
</glyph>
<glyph name="quotesingle" format="1">
  <advance width="214"/>
  <unicode hex="0027"/>
  <outline>
    <contour>
      <point x="30" y="474" type="line"/>
      <point x="30" y="474"/>
      <point x="87" y="522"/>
      <point x="87" y="563" type="curve"/>
      <point x="47" y="574"/>
      <point x="24" y="614"/>
      <point x="35" y="655" type="curve" smooth="yes"/>
      <point x="45" y="695"/>
      <point x="87" y="719"/>
      <point x="128" y="708" type="curve" smooth="yes"/>
      <point x="156" y="701"/>
      <point x="178" y="677"/>
      <point x="182" y="649" type="curve" smooth="yes"/>
      <point x="182" y="648"/>
      <point x="209" y="546"/>
      <point x="79" y="454" type="curve"/>
    </contour>
  </outline>
</glyph>
<glyph name="parenleft" format="1">
  <advance width="390"/>
  <unicode hex="0028"/>
  <outline>
    <contour>
      <point x="168" y="360" type="line"/>
      <point x="168" y="360"/>
      <point x="162" y="637"/>
      <point x="360" y="753" type="curve"/>
      <point x="330" y="800" type="line"/>
      <point x="330" y="800"/>
      <point x="30" y="701"/>
      <point x="30" y="366" type="curve" smooth="yes"/>
      <point x="30" y="349" type="line" smooth="yes"/>
      <point x="30" y="14"/>
      <point x="330" y="-84"/>
      <point x="330" y="-84" type="curve"/>
      <point x="360" y="-39" type="line"/>
      <point x="168" y="77"/>
      <point x="168" y="356"/>
      <point x="168" y="356" type="curve"/>
    </contour>
  </outline>
</glyph>
<glyph name="parenright" format="1">
  <advance width="390"/>
  <unicode hex="0029"/>
  <outline>
    <contour>
      <point x="222" y="360" type="line"/>
      <point x="222" y="360"/>
      <point x="229" y="637"/>
      <point x="30" y="755" type="curve"/>
      <point x="61" y="800" type="line"/>
      <point x="61" y="800"/>
      <point x="360" y="701"/>
      <point x="360" y="366" type="curve" smooth="yes"/>
      <point x="360" y="350" type="line" smooth="yes"/>
      <point x="360" y="15"/>
      <point x="61" y="-84"/>
      <point x="61" y="-84" type="curve"/>
      <point x="30" y="-38" type="line"/>
      <point x="222" y="78"/>
      <point x="222" y="356"/>
      <point x="222" y="356" type="curve"/>
    </contour>
  </outline>
</glyph>
<glyph name="asterisk" format="1">
  <advance width="399"/>
  <unicode hex="002A"/>
  <outline>
    <contour>
      <point x="295" y="612" type="curve" smooth="yes"/>
      <point x="228" y="572" type="line"/>
      <point x="250" y="652" type="line"/>
      <point x="257" y="684"/>
      <point x="233" y="707"/>
      <point x="201" y="707" type="curve" smooth="yes"/>
      <point x="167" y="707"/>
      <point x="143" y="684"/>
      <point x="150" y="652" type="curve" smooth="yes"/>
      <point x="170" y="572" type="line"/>
      <point x="102" y="615" type="line" smooth="yes"/>
      <point x="94" y="620"/>
      <point x="85" y="622"/>
      <point x="81" y="622" type="curve" smooth="yes"/>
      <point x="53" y="622"/>
      <point x="30" y="603"/>
      <point x="30" y="572" type="curve" smooth="yes"/>
      <point x="30" y="548"/>
      <point x="42" y="528"/>
      <point x="69" y="524" type="curve"/>
      <point x="152" y="517" type="line"/>
      <point x="89" y="465" type="line" smooth="yes"/>
      <point x="78" y="455"/>
      <point x="75" y="442"/>
      <point x="75" y="431" type="curve" smooth="yes"/>
      <point x="75" y="405"/>
      <point x="97" y="382"/>
      <point x="124" y="382" type="curve" smooth="yes"/>
      <point x="141" y="382"/>
      <point x="160" y="389"/>
      <point x="168" y="411" type="curve" smooth="yes"/>
      <point x="199" y="483" type="line"/>
      <point x="229" y="407" type="line"/>
      <point x="238" y="389"/>
      <point x="256" y="380"/>
      <point x="273" y="380" type="curve" smooth="yes"/>
      <point x="302" y="380"/>
      <point x="322" y="406"/>
      <point x="322" y="430" type="curve" smooth="yes"/>
      <point x="322" y="441"/>
      <point x="319" y="451"/>
      <point x="306" y="464" type="curve"/>
      <point x="245" y="516" type="line"/>
      <point x="325" y="522" type="line" smooth="yes"/>
      <point x="352" y="524"/>
      <point x="369" y="549"/>
      <point x="369" y="570" type="curve" smooth="yes"/>
      <point x="369" y="599"/>
      <point x="343" y="619"/>
      <point x="319" y="619" type="curve" smooth="yes"/>
      <point x="314" y="619"/>
      <point x="303" y="617"/>
    </contour>
  </outline>
</glyph>
<glyph name="plus" format="1">
  <advance width="552"/>
  <unicode hex="002B"/>
  <outline>
    <contour>
      <point x="30" y="198" type="line"/>
      <point x="522" y="198" type="line"/>
      <point x="522" y="319" type="line"/>
      <point x="30" y="319" type="line"/>
    </contour>
    <contour>
      <point x="208" y="500" type="line"/>
      <point x="208" y="0" type="line"/>
      <point x="329" y="0" type="line"/>
      <point x="329" y="500" type="line"/>
    </contour>
  </outline>
</glyph>
<glyph name="comma" format="1">
  <advance width="215"/>
  <unicode hex="002C"/>
  <outline>
    <contour>
      <point x="29.542" y="-91" type="line"/>
      <point x="29.542" y="-91"/>
      <point x="87.542" y="-42"/>
      <point x="87.542" y="0" type="curve"/>
      <point x="46.542" y="12"/>
      <point x="23.542" y="52"/>
      <point x="34.542" y="94" type="curve" smooth="yes"/>
      <point x="44.542" y="135"/>
      <point x="87.542" y="160"/>
      <point x="129.542" y="148" type="curve" smooth="yes"/>
      <point x="158.542" y="141"/>
      <point x="180.542" y="117"/>
      <point x="184.542" y="88" type="curve" smooth="yes"/>
      <point x="184.542" y="87"/>
      <point x="212.542" y="-17"/>
      <point x="79.542" y="-111" type="curve"/>
    </contour>
  </outline>
</glyph>
<glyph name="hyphen" format="1">
  <advance width="346"/>
  <unicode hex="002D"/>
  <outline>
    <contour>
      <point x="26" y="215" type="line"/>
      <point x="318" y="215" type="line"/>
      <point x="318" y="336" type="line"/>
      <point x="26" y="336" type="line"/>
    </contour>
  </outline>
</glyph>
<glyph name="slash" format="1">
  <advance width="517"/>
  <unicode hex="002F"/>
  <outline>
    <contour>
      <point x="30" y="-48" type="line"/>
      <point x="351" y="700" type="line"/>
      <point x="487" y="700" type="line"/>
      <point x="167" y="-48" type="line"/>
    </contour>
  </outline>
</glyph>
<glyph name="zero" format="1">
  <advance width="639"/>
  <unicode hex="0030"/>
  <outline>
    <contour>
      <point x="30" y="351" type="curve" smooth="yes"/>
      <point x="30" y="156"/>
      <point x="127" y="-12"/>
      <point x="321" y="-12" type="curve" smooth="yes"/>
      <point x="515" y="-12"/>
      <point x="609" y="156"/>
      <point x="609" y="351" type="curve" smooth="yes"/>
      <point x="609" y="546"/>
      <point x="515" y="711"/>
      <point x="321" y="711" type="curve" smooth="yes"/>
      <point x="127" y="711"/>
      <point x="30" y="546"/>
    </contour>
    <contour>
      <point x="188" y="351" type="curve" smooth="yes"/>
      <point x="188" y="470"/>
      <point x="214" y="576"/>
      <point x="321" y="576" type="curve" smooth="yes"/>
      <point x="428" y="576"/>
      <point x="451" y="470"/>
      <point x="451" y="351" type="curve" smooth="yes"/>
      <point x="451" y="232"/>
      <point x="428" y="122"/>
      <point x="321" y="122" type="curve" smooth="yes"/>
      <point x="214" y="122"/>
      <point x="188" y="232"/>
    </contour>
  </outline>
</glyph>
<glyph name="one" format="1">
  <advance width="579"/>
  <unicode hex="0031"/>
  <outline>
    <contour>
      <point x="30" y="0" type="line"/>
      <point x="549" y="0" type="line"/>
      <point x="430" y="141" type="line"/>
      <point x="362" y="141" type="line"/>
      <point x="362" y="701" type="line"/>
      <point x="236" y="701" type="line"/>
      <point x="236" y="630"/>
      <point x="172" y="531"/>
      <point x="47" y="556" type="curve"/>
      <point x="76" y="412" type="line"/>
      <point x="134" y="412"/>
      <point x="189" y="432"/>
      <point x="214" y="476" type="curve"/>
      <point x="214" y="141" type="line"/>
      <point x="150" y="141" type="line"/>
    </contour>
  </outline>
</glyph>
<glyph name="two" format="1">
  <advance width="611"/>
  <unicode hex="0032"/>
  <outline>
    <contour>
      <point x="465.289" y="142" type="line"/>
      <point x="219.289" y="142" type="line"/>
      <point x="203.289" y="213"/>
      <point x="308.289" y="255"/>
      <point x="308.289" y="255" type="curve"/>
      <point x="549.289" y="366"/>
      <point x="529.289" y="513"/>
      <point x="529.289" y="513" type="curve"/>
      <point x="525.289" y="674"/>
      <point x="367.289" y="708"/>
      <point x="281.289" y="709" type="curve" smooth="yes"/>
      <point x="260.289" y="709"/>
      <point x="230.289" y="708"/>
      <point x="208.289" y="705" type="curve" smooth="yes"/>
      <point x="102.289" y="689"/>
      <point x="37.2891" y="632"/>
      <point x="26.2891" y="559" type="curve" smooth="yes"/>
      <point x="24.2891" y="551"/>
      <point x="24.2891" y="544"/>
      <point x="24.2891" y="536" type="curve" smooth="yes"/>
      <point x="26.2891" y="468"/>
      <point x="76.2891" y="425"/>
      <point x="137.289" y="427" type="curve" smooth="yes"/>
      <point x="197.289" y="429"/>
      <point x="228.289" y="456"/>
      <point x="235.289" y="481" type="curve"/>
      <point x="229.289" y="489" type="line"/>
      <point x="226.289" y="487"/>
      <point x="223.289" y="486"/>
      <point x="217.289" y="486" type="curve" smooth="yes"/>
      <point x="210.289" y="486" type="line" smooth="yes"/>
      <point x="189.289" y="488"/>
      <point x="178.289" y="501"/>
      <point x="178.289" y="522" type="curve" smooth="yes"/>
      <point x="178.289" y="554"/>
      <point x="206.289" y="586"/>
      <point x="255.289" y="588" type="curve" smooth="yes"/>
      <point x="261.289" y="588"/>
      <point x="274.289" y="589"/>
      <point x="288.289" y="587" type="curve" smooth="yes"/>
      <point x="339.289" y="580"/>
      <point x="363.289" y="537"/>
      <point x="362.289" y="488" type="curve"/>
      <point x="362.289" y="488"/>
      <point x="363.289" y="407"/>
      <point x="223.289" y="340" type="curve" smooth="yes"/>
      <point x="24.2891" y="244"/>
      <point x="7.28906" y="116"/>
      <point x="10.2891" y="0" type="curve"/>
      <point x="581.289" y="0" type="line"/>
    </contour>
  </outline>
</glyph>
<glyph name="three" format="1">
  <advance width="574"/>
  <unicode hex="0033"/>
  <outline>
    <contour>
      <point x="527" y="512" type="curve"/>
      <point x="527" y="673"/>
      <point x="382" y="707"/>
      <point x="299" y="710" type="curve" smooth="yes"/>
      <point x="279" y="711"/>
      <point x="249" y="710"/>
      <point x="229" y="708" type="curve" smooth="yes"/>
      <point x="126" y="697"/>
      <point x="58" y="637"/>
      <point x="45" y="571" type="curve" smooth="yes"/>
      <point x="44" y="564"/>
      <point x="43" y="557"/>
      <point x="43" y="549" type="curve" smooth="yes"/>
      <point x="43" y="482"/>
      <point x="95" y="448"/>
      <point x="152" y="448" type="curve" smooth="yes"/>
      <point x="210" y="448"/>
      <point x="240" y="473"/>
      <point x="249" y="499" type="curve"/>
      <point x="243" y="506" type="line"/>
      <point x="240" y="505"/>
      <point x="237" y="504"/>
      <point x="232" y="504" type="curve" smooth="yes"/>
      <point x="225" y="504" type="line" smooth="yes"/>
      <point x="204" y="506"/>
      <point x="194" y="519"/>
      <point x="194" y="540" type="curve" smooth="yes"/>
      <point x="194" y="564"/>
      <point x="222" y="590"/>
      <point x="271" y="590" type="curve" smooth="yes"/>
      <point x="276" y="590"/>
      <point x="290" y="590"/>
      <point x="301" y="588" type="curve" smooth="yes"/>
      <point x="351" y="581"/>
      <point x="374" y="537"/>
      <point x="372" y="490" type="curve"/>
      <point x="372" y="490"/>
      <point x="367" y="412"/>
      <point x="289" y="412" type="curve" smooth="yes"/>
      <point x="223" y="412" type="line"/>
      <point x="223" y="324" type="line"/>
      <point x="275" y="324" type="line" smooth="yes"/>
      <point x="374" y="324"/>
      <point x="377" y="216"/>
      <point x="377" y="216" type="curve"/>
      <point x="380" y="168"/>
      <point x="352" y="119"/>
      <point x="300" y="111" type="curve" smooth="yes"/>
      <point x="288" y="108"/>
      <point x="273" y="108"/>
      <point x="268" y="108" type="curve" smooth="yes"/>
      <point x="216" y="108"/>
      <point x="186" y="144"/>
      <point x="186" y="175" type="curve" smooth="yes"/>
      <point x="186" y="196"/>
      <point x="197" y="209"/>
      <point x="218" y="211" type="curve" smooth="yes"/>
      <point x="226" y="211" type="line" smooth="yes"/>
      <point x="232" y="211"/>
      <point x="235" y="210"/>
      <point x="238" y="209" type="curve"/>
      <point x="244" y="216" type="line"/>
      <point x="235" y="241"/>
      <point x="203" y="266"/>
      <point x="143" y="266" type="curve" smooth="yes"/>
      <point x="82" y="266"/>
      <point x="30" y="217"/>
      <point x="30" y="150" type="curve" smooth="yes"/>
      <point x="30" y="143"/>
      <point x="31" y="135"/>
      <point x="32" y="128" type="curve" smooth="yes"/>
      <point x="47" y="54"/>
      <point x="118" y="2"/>
      <point x="226" y="-9" type="curve" smooth="yes"/>
      <point x="248" y="-11"/>
      <point x="280" y="-12"/>
      <point x="300" y="-11" type="curve" smooth="yes"/>
      <point x="388" y="-8"/>
      <point x="544" y="33"/>
      <point x="544" y="194" type="curve"/>
      <point x="544" y="194"/>
      <point x="544" y="351"/>
      <point x="391" y="376" type="curve"/>
      <point x="533" y="397"/>
      <point x="527" y="512"/>
    </contour>
  </outline>
</glyph>
<glyph name="four" format="1">
  <advance width="666"/>
  <unicode hex="0034"/>
  <outline>
    <contour>
      <point x="118" y="0" type="line"/>
      <point x="636" y="0" type="line"/>
      <point x="516" y="144" type="line"/>
      <point x="452" y="144" type="line"/>
      <point x="452" y="234" type="line"/>
      <point x="516" y="234" type="line"/>
      <point x="634" y="353" type="line"/>
      <point x="452" y="353" type="line"/>
      <point x="452" y="702" type="line"/>
      <point x="302" y="702" type="line"/>
      <point x="302" y="702" type="line"/>
      <point x="302" y="702" type="line"/>
      <point x="30" y="353" type="line"/>
      <point x="30" y="234" type="line"/>
      <point x="302" y="234" type="line"/>
      <point x="302" y="144" type="line"/>
      <point x="237" y="144" type="line"/>
    </contour>
    <contour>
      <point x="302" y="556" type="line"/>
      <point x="302" y="353" type="line"/>
      <point x="143" y="353" type="line"/>
    </contour>
  </outline>
</glyph>
<glyph name="five" format="1">
  <advance width="564"/>
  <unicode hex="0035"/>
  <outline>
    <contour>
      <point x="186.778" y="412" type="curve"/>
      <point x="186.778" y="558" type="line"/>
      <point x="399.778" y="558" type="line"/>
      <point x="534.778" y="700" type="line"/>
      <point x="62.7783" y="700" type="line"/>
      <point x="62.7783" y="319" type="line"/>
      <point x="94.7783" y="319" type="line"/>
      <point x="187.778" y="319" type="line"/>
      <point x="208.778" y="369"/>
      <point x="268.778" y="370"/>
      <point x="268.778" y="370" type="curve"/>
      <point x="380.778" y="370"/>
      <point x="371.778" y="224"/>
      <point x="371.778" y="224" type="curve"/>
      <point x="371.778" y="168"/>
      <point x="346.778" y="120"/>
      <point x="293.778" y="112" type="curve" smooth="yes"/>
      <point x="281.778" y="110"/>
      <point x="266.778" y="110"/>
      <point x="261.778" y="110" type="curve" smooth="yes"/>
      <point x="210.778" y="110"/>
      <point x="179.778" y="145"/>
      <point x="179.778" y="176" type="curve" smooth="yes"/>
      <point x="179.778" y="197"/>
      <point x="190.778" y="210"/>
      <point x="211.778" y="212" type="curve" smooth="yes"/>
      <point x="214.778" y="213"/>
      <point x="216.778" y="213"/>
      <point x="219.778" y="213" type="curve" smooth="yes"/>
      <point x="224.778" y="213"/>
      <point x="227.778" y="211"/>
      <point x="230.778" y="210" type="curve"/>
      <point x="237.778" y="218" type="line"/>
      <point x="228.778" y="243"/>
      <point x="197.778" y="268"/>
      <point x="136.778" y="268" type="curve" smooth="yes"/>
      <point x="75.7783" y="268"/>
      <point x="29.7783" y="212"/>
      <point x="29.7783" y="145" type="curve" smooth="yes"/>
      <point x="29.7783" y="137"/>
      <point x="30.7783" y="130"/>
      <point x="32.7783" y="123" type="curve" smooth="yes"/>
      <point x="46.7783" y="50"/>
      <point x="107.778" y="4"/>
      <point x="216.778" y="-8" type="curve" smooth="yes"/>
      <point x="237.778" y="-10"/>
      <point x="268.778" y="-10"/>
      <point x="290.778" y="-10" type="curve" smooth="yes"/>
      <point x="381.778" y="-8"/>
      <point x="534.778" y="55"/>
      <point x="534.778" y="227" type="curve"/>
      <point x="534.778" y="227"/>
      <point x="547.778" y="411"/>
      <point x="374.778" y="453" type="curve" smooth="yes"/>
      <point x="289.778" y="474"/>
      <point x="215.778" y="451"/>
    </contour>
  </outline>
</glyph>
<glyph name="six" format="1">
  <advance width="588"/>
  <unicode hex="0036"/>
  <outline>
    <contour>
      <point x="182" y="367" type="curve"/>
      <point x="189" y="526"/>
      <point x="259" y="584"/>
      <point x="312" y="593" type="curve" smooth="yes"/>
      <point x="351" y="599"/>
      <point x="397" y="585"/>
      <point x="402" y="540" type="curve" smooth="yes"/>
      <point x="404" y="519"/>
      <point x="394" y="505"/>
      <point x="376" y="499" type="curve" smooth="yes"/>
      <point x="374" y="498"/>
      <point x="372" y="497"/>
      <point x="369" y="497" type="curve" smooth="yes"/>
      <point x="364" y="496"/>
      <point x="361" y="496"/>
      <point x="358" y="497" type="curve"/>
      <point x="354" y="488" type="line"/>
      <point x="367" y="466"/>
      <point x="403" y="447"/>
      <point x="458" y="462" type="curve" smooth="yes"/>
      <point x="513" y="477"/>
      <point x="549" y="533"/>
      <point x="533" y="597" type="curve" smooth="yes"/>
      <point x="524" y="631"/>
      <point x="490" y="667"/>
      <point x="445" y="686" type="curve" smooth="yes"/>
      <point x="394" y="708"/>
      <point x="359" y="712"/>
      <point x="314" y="711" type="curve" smooth="yes"/>
      <point x="220" y="711"/>
      <point x="118" y="675"/>
      <point x="54" y="509" type="curve"/>
      <point x="54" y="509"/>
      <point x="0" y="359"/>
      <point x="54" y="172" type="curve" smooth="yes"/>
      <point x="81" y="81"/>
      <point x="144" y="13"/>
      <point x="240" y="-4" type="curve" smooth="yes"/>
      <point x="261" y="-7"/>
      <point x="288" y="-9"/>
      <point x="315" y="-9" type="curve" smooth="yes"/>
      <point x="403" y="-9"/>
      <point x="541" y="37"/>
      <point x="556" y="183" type="curve"/>
      <point x="556" y="183"/>
      <point x="585" y="355"/>
      <point x="433" y="407" type="curve" smooth="yes"/>
      <point x="310" y="449"/>
      <point x="213" y="399"/>
    </contour>
    <contour>
      <point x="184" y="283" type="curve"/>
      <point x="238" y="342"/>
      <point x="309" y="331"/>
      <point x="309" y="331" type="curve"/>
      <point x="408" y="325"/>
      <point x="404" y="211"/>
      <point x="404" y="211" type="curve"/>
      <point x="404" y="164"/>
      <point x="375" y="104"/>
      <point x="289" y="111" type="curve" smooth="yes"/>
      <point x="221" y="116"/>
      <point x="182" y="183"/>
    </contour>
  </outline>
</glyph>
<glyph name="seven" format="1">
  <advance width="625"/>
  <unicode hex="0037"/>
  <outline>
    <contour>
      <point x="10" y="700" type="line"/>
      <point x="132" y="557" type="line"/>
      <point x="386" y="557" type="line"/>
      <point x="213" y="143" type="line"/>
      <point x="155" y="143" type="line"/>
      <point x="36" y="0" type="line"/>
      <point x="549" y="0" type="line"/>
      <point x="433" y="143" type="line"/>
      <point x="365" y="143" type="line"/>
      <point x="595" y="700" type="line"/>
    </contour>
  </outline>
</glyph>
<glyph name="eight" format="1">
  <advance width="590"/>
  <unicode hex="0038"/>
  <outline>
    <contour>
      <point x="429" y="377" type="curve"/>
      <point x="479" y="379"/>
      <point x="546" y="441"/>
      <point x="542" y="525" type="curve" smooth="yes"/>
      <point x="534" y="726"/>
      <point x="285" y="715"/>
      <point x="285" y="715" type="curve"/>
      <point x="276" y="714"/>
      <point x="267" y="714"/>
      <point x="258" y="713" type="curve" smooth="yes"/>
      <point x="165" y="707"/>
      <point x="54" y="663"/>
      <point x="42" y="523" type="curve"/>
      <point x="42" y="523"/>
      <point x="21" y="382"/>
      <point x="173" y="337" type="curve"/>
      <point x="122" y="335"/>
      <point x="36" y="286"/>
      <point x="30" y="193" type="curve"/>
      <point x="30" y="193"/>
      <point x="5" y="-27"/>
      <point x="311" y="-15" type="curve" smooth="yes"/>
      <point x="320" y="-14"/>
      <point x="329" y="-14"/>
      <point x="338" y="-13" type="curve" smooth="yes"/>
      <point x="432" y="-8"/>
      <point x="553" y="51"/>
      <point x="560" y="190" type="curve"/>
      <point x="560" y="190"/>
      <point x="570" y="289"/>
      <point x="475" y="353" type="curve" smooth="yes"/>
      <point x="459" y="365"/>
      <point x="440" y="372"/>
    </contour>
    <contour>
      <point x="286" y="602" type="curve"/>
      <point x="286" y="602"/>
      <point x="393" y="611"/>
      <point x="405" y="516" type="curve" smooth="yes"/>
      <point x="411" y="471"/>
      <point x="386" y="425"/>
      <point x="347" y="402" type="curve"/>
      <point x="330" y="404"/>
      <point x="327" y="404"/>
      <point x="311" y="405" type="curve" smooth="yes"/>
      <point x="179" y="415"/>
      <point x="184" y="504"/>
      <point x="184" y="504" type="curve"/>
      <point x="182" y="549"/>
      <point x="210" y="598"/>
    </contour>
    <contour>
      <point x="288" y="104" type="curve"/>
      <point x="288" y="104"/>
      <point x="179" y="99"/>
      <point x="175" y="195" type="curve" smooth="yes"/>
      <point x="172" y="262"/>
      <point x="214" y="292"/>
      <point x="268" y="315" type="curve"/>
      <point x="396" y="302"/>
      <point x="398" y="206"/>
      <point x="398" y="206" type="curve"/>
      <point x="401" y="162"/>
      <point x="380" y="108"/>
    </contour>
  </outline>
</glyph>
<glyph name="nine" format="1">
  <advance width="595"/>
  <unicode hex="0039"/>
  <outline>
    <contour>
      <point x="412" y="334" type="curve"/>
      <point x="408" y="175"/>
      <point x="339" y="115"/>
      <point x="287" y="105" type="curve" smooth="yes"/>
      <point x="248" y="98"/>
      <point x="188" y="111"/>
      <point x="182" y="157" type="curve" smooth="yes"/>
      <point x="179" y="177"/>
      <point x="189" y="192"/>
      <point x="208" y="199" type="curve" smooth="yes"/>
      <point x="210" y="199"/>
      <point x="212" y="200"/>
      <point x="214" y="200" type="curve" smooth="yes"/>
      <point x="220" y="202"/>
      <point x="223" y="201"/>
      <point x="225" y="200" type="curve"/>
      <point x="230" y="209" type="line"/>
      <point x="216" y="232"/>
      <point x="179" y="250"/>
      <point x="124" y="234" type="curve" smooth="yes"/>
      <point x="69" y="217"/>
      <point x="37" y="160"/>
      <point x="55" y="95" type="curve" smooth="yes"/>
      <point x="65" y="56"/>
      <point x="106" y="25"/>
      <point x="138" y="11" type="curve" smooth="yes"/>
      <point x="186" y="-10"/>
      <point x="228" y="-12"/>
      <point x="291" y="-12" type="curve" smooth="yes"/>
      <point x="378" y="-12"/>
      <point x="483" y="26"/>
      <point x="544" y="195" type="curve"/>
      <point x="544" y="195"/>
      <point x="596" y="346"/>
      <point x="537" y="533" type="curve" smooth="yes"/>
      <point x="508" y="625"/>
      <point x="442" y="692"/>
      <point x="345" y="707" type="curve" smooth="yes"/>
      <point x="323" y="710"/>
      <point x="298" y="711"/>
      <point x="271" y="711" type="curve" smooth="yes"/>
      <point x="182" y="709"/>
      <point x="44" y="659"/>
      <point x="32" y="511" type="curve"/>
      <point x="32" y="511"/>
      <point x="6" y="337"/>
      <point x="161" y="288" type="curve" smooth="yes"/>
      <point x="286" y="250"/>
      <point x="381" y="300"/>
    </contour>
    <contour>
      <point x="408" y="418" type="curve"/>
      <point x="355" y="358"/>
      <point x="285" y="368"/>
      <point x="285" y="368" type="curve"/>
      <point x="184" y="371"/>
      <point x="186" y="486"/>
      <point x="186" y="486" type="curve"/>
      <point x="185" y="534"/>
      <point x="213" y="595"/>
      <point x="300" y="590" type="curve" smooth="yes"/>
      <point x="367" y="586"/>
      <point x="408" y="519"/>
    </contour>
  </outline>
</glyph>
<glyph name="colon" format="1">
  <advance width="220"/>
  <unicode hex="003A"/>
  <outline>
    <contour>
      <point x="109" y="-8" type="curve" smooth="yes"/>
      <point x="66" y="-8"/>
      <point x="30" y="28"/>
      <point x="30" y="71" type="curve" smooth="yes"/>
      <point x="30" y="116"/>
      <point x="66" y="152"/>
      <point x="109" y="152" type="curve" smooth="yes"/>
      <point x="154" y="152"/>
      <point x="190" y="116"/>
      <point x="190" y="71" type="curve" smooth="yes"/>
      <point x="190" y="28"/>
      <point x="154" y="-8"/>
    </contour>
    <contour>
      <point x="109" y="344" type="curve" smooth="yes"/>
      <point x="66" y="344"/>
      <point x="30" y="380"/>
      <point x="30" y="423" type="curve" smooth="yes"/>
      <point x="30" y="468"/>
      <point x="66" y="504"/>
      <point x="109" y="504" type="curve" smooth="yes"/>
      <point x="154" y="504"/>
      <point x="190" y="468"/>
      <point x="190" y="423" type="curve" smooth="yes"/>
      <point x="190" y="380"/>
      <point x="154" y="344"/>
    </contour>
  </outline>
</glyph>
<glyph name="semicolon" format="1">
  <advance width="220"/>
  <unicode hex="003B"/>
  <outline>
    <contour>
      <point x="109" y="344" type="curve" smooth="yes"/>
      <point x="66" y="344"/>
      <point x="30" y="380"/>
      <point x="30" y="423" type="curve" smooth="yes"/>
      <point x="30" y="468"/>
      <point x="66" y="504"/>
      <point x="109" y="504" type="curve" smooth="yes"/>
      <point x="154" y="504"/>
      <point x="190" y="468"/>
      <point x="190" y="423" type="curve" smooth="yes"/>
      <point x="190" y="380"/>
      <point x="154" y="344"/>
    </contour>
    <contour>
      <point x="30" y="-91" type="line"/>
      <point x="30" y="-91"/>
      <point x="88" y="-42"/>
      <point x="88" y="0" type="curve"/>
      <point x="47" y="12"/>
      <point x="24" y="52"/>
      <point x="35" y="94" type="curve" smooth="yes"/>
      <point x="45" y="135"/>
      <point x="88" y="160"/>
      <point x="130" y="148" type="curve" smooth="yes"/>
      <point x="159" y="141"/>
      <point x="181" y="117"/>
      <point x="185" y="88" type="curve" smooth="yes"/>
      <point x="185" y="87"/>
      <point x="213" y="-17"/>
      <point x="80" y="-111" type="curve"/>
    </contour>
  </outline>
</glyph>
<glyph name="less" format="1">
  <advance width="483"/>
  <unicode hex="003C"/>
  <outline>
    <contour>
      <point x="452" y="500" type="line"/>
      <point x="453" y="500" type="line"/>
      <point x="453" y="385" type="line"/>
      <point x="231" y="250" type="line"/>
      <point x="453" y="119" type="line"/>
      <point x="453" y="0" type="line"/>
      <point x="452" y="0" type="line"/>
      <point x="30" y="250" type="line"/>
    </contour>
  </outline>
</glyph>
<glyph name="equal" format="1">
  <advance width="592"/>
  <unicode hex="003D"/>
  <outline>
    <contour>
      <point x="30" y="295" type="line"/>
      <point x="562" y="295" type="line"/>
      <point x="562" y="416" type="line"/>
      <point x="30" y="416" type="line"/>
    </contour>
    <contour>
      <point x="30" y="75" type="line"/>
      <point x="562" y="75" type="line"/>
      <point x="562" y="196" type="line"/>
      <point x="30" y="196" type="line"/>
    </contour>
  </outline>
</glyph>
<glyph name="greater" format="1">
  <advance width="483"/>
  <unicode hex="003E"/>
  <outline>
    <contour>
      <point x="31" y="500" type="line"/>
      <point x="30" y="500" type="line"/>
      <point x="30" y="385" type="line"/>
      <point x="252" y="250" type="line"/>
      <point x="30" y="119" type="line"/>
      <point x="30" y="0" type="line"/>
      <point x="31" y="0" type="line"/>
      <point x="453" y="250" type="line"/>
    </contour>
  </outline>
</glyph>
<glyph name="question" format="1">
  <advance width="493"/>
  <unicode hex="003F"/>
  <outline>
    <contour>
      <point x="223" y="-8" type="curve" smooth="yes"/>
      <point x="180" y="-8"/>
      <point x="144" y="28"/>
      <point x="144" y="71" type="curve" smooth="yes"/>
      <point x="144" y="116"/>
      <point x="180" y="152"/>
      <point x="223" y="152" type="curve" smooth="yes"/>
      <point x="268" y="152"/>
      <point x="304" y="116"/>
      <point x="304" y="71" type="curve" smooth="yes"/>
      <point x="304" y="28"/>
      <point x="268" y="-8"/>
    </contour>
    <contour>
      <point x="169" y="381" type="curve" smooth="yes"/>
      <point x="308" y="415"/>
      <point x="313" y="508"/>
      <point x="313" y="508" type="curve"/>
      <point x="319" y="563"/>
      <point x="298" y="602"/>
      <point x="247" y="611" type="curve" smooth="yes"/>
      <point x="237" y="613"/>
      <point x="224" y="613"/>
      <point x="219" y="613" type="curve" smooth="yes"/>
      <point x="176" y="611"/>
      <point x="149" y="579"/>
      <point x="151" y="553" type="curve" smooth="yes"/>
      <point x="152" y="535"/>
      <point x="161" y="524"/>
      <point x="180" y="524" type="curve" smooth="yes"/>
      <point x="182" y="524"/>
      <point x="189" y="524"/>
      <point x="195" y="526" type="curve"/>
      <point x="201" y="519" type="line"/>
      <point x="195" y="498"/>
      <point x="169" y="475"/>
      <point x="118" y="472" type="curve" smooth="yes"/>
      <point x="67" y="469"/>
      <point x="13" y="505"/>
      <point x="10" y="562" type="curve" smooth="yes"/>
      <point x="10" y="569"/>
      <point x="10" y="575"/>
      <point x="11" y="582" type="curve" smooth="yes"/>
      <point x="20" y="645"/>
      <point x="81" y="698"/>
      <point x="174" y="710" type="curve" smooth="yes"/>
      <point x="191" y="712"/>
      <point x="218" y="714"/>
      <point x="235" y="714" type="curve" smooth="yes"/>
      <point x="334" y="716"/>
      <point x="463" y="673"/>
      <point x="463" y="535" type="curve"/>
      <point x="463" y="535"/>
      <point x="463" y="383"/>
      <point x="301" y="341" type="curve"/>
      <point x="286" y="212" type="line"/>
      <point x="164" y="212" type="line"/>
      <point x="151" y="375" type="line"/>
      <point x="151" y="375"/>
      <point x="162" y="378"/>
    </contour>
  </outline>
</glyph>
<glyph name="at" format="1">
  <advance width="964"/>
  <unicode hex="0040"/>
  <outline>
    <contour>
      <point x="934" y="246" type="curve" smooth="yes"/>
      <point x="934" y="496"/>
      <point x="731" y="698"/>
      <point x="482" y="698" type="curve" smooth="yes"/>
      <point x="233" y="698"/>
      <point x="30" y="496"/>
      <point x="30" y="246" type="curve" smooth="yes"/>
      <point x="30" y="-3"/>
      <point x="233" y="-205"/>
      <point x="482" y="-205" type="curve" smooth="yes"/>
      <point x="506" y="-205"/>
      <point x="529" y="-204"/>
      <point x="551" y="-200" type="curve"/>
      <point x="551" y="-94" type="line"/>
      <point x="529" y="-99"/>
      <point x="506" y="-101"/>
      <point x="482" y="-101" type="curve" smooth="yes"/>
      <point x="291" y="-101"/>
      <point x="135" y="55"/>
      <point x="135" y="246" type="curve" smooth="yes"/>
      <point x="135" y="438"/>
      <point x="291" y="594"/>
      <point x="482" y="594" type="curve" smooth="yes"/>
      <point x="674" y="594"/>
      <point x="830" y="438"/>
      <point x="830" y="246" type="curve" smooth="yes"/>
      <point x="830" y="211"/>
      <point x="826" y="173"/>
      <point x="815" y="145" type="curve" smooth="yes"/>
      <point x="813" y="140"/>
      <point x="810" y="136"/>
      <point x="809" y="134" type="curve" smooth="yes"/>
      <point x="777" y="86"/>
      <point x="695" y="92"/>
      <point x="695" y="178" type="curve" smooth="yes"/>
      <point x="696" y="306" type="line" smooth="yes"/>
      <point x="701" y="489"/>
      <point x="566" y="510"/>
      <point x="490" y="510" type="curve" smooth="yes"/>
      <point x="478" y="511"/>
      <point x="446" y="510"/>
      <point x="429" y="508" type="curve" smooth="yes"/>
      <point x="339" y="499"/>
      <point x="281" y="455"/>
      <point x="269" y="399" type="curve" smooth="yes"/>
      <point x="268" y="393"/>
      <point x="267" y="387"/>
      <point x="267" y="380" type="curve" smooth="yes"/>
      <point x="267" y="324"/>
      <point x="313" y="296"/>
      <point x="363" y="296" type="curve" smooth="yes"/>
      <point x="413" y="296"/>
      <point x="439" y="317"/>
      <point x="446" y="338" type="curve"/>
      <point x="441" y="344" type="line"/>
      <point x="438" y="343"/>
      <point x="436" y="342"/>
      <point x="431" y="342" type="curve" smooth="yes"/>
      <point x="429" y="342"/>
      <point x="427" y="342"/>
      <point x="425" y="343" type="curve" smooth="yes"/>
      <point x="408" y="344"/>
      <point x="399" y="355"/>
      <point x="399" y="373" type="curve" smooth="yes"/>
      <point x="399" y="394"/>
      <point x="424" y="413"/>
      <point x="466" y="413" type="curve" smooth="yes"/>
      <point x="470" y="413"/>
      <point x="483" y="412"/>
      <point x="492" y="411" type="curve" smooth="yes"/>
      <point x="539" y="404"/>
      <point x="552" y="364"/>
      <point x="551" y="319" type="curve" smooth="yes"/>
      <point x="551" y="314" type="line"/>
      <point x="421" y="283"/>
      <point x="240" y="243"/>
      <point x="240" y="124" type="curve" smooth="yes"/>
      <point x="240" y="31"/>
      <point x="333" y="-8"/>
      <point x="415" y="-8" type="curve" smooth="yes"/>
      <point x="519" y="-8"/>
      <point x="558" y="59"/>
      <point x="558" y="59" type="curve"/>
      <point x="598" y="-19"/>
      <point x="732" y="-21"/>
      <point x="801" y="2" type="curve" smooth="yes"/>
      <point x="838" y="14"/>
      <point x="889" y="38"/>
      <point x="918" y="128" type="curve"/>
      <point x="918" y="128" type="line"/>
      <point x="919" y="130"/>
      <point x="919" y="131"/>
      <point x="919" y="132" type="curve" smooth="yes"/>
      <point x="919" y="133"/>
      <point x="920" y="134"/>
      <point x="920" y="135" type="curve"/>
      <point x="920" y="135" type="line"/>
      <point x="929" y="171"/>
      <point x="934" y="208"/>
    </contour>
    <contour>
      <point x="468" y="104" type="curve" smooth="yes"/>
      <point x="429" y="102"/>
      <point x="404" y="120"/>
      <point x="404" y="146" type="curve" smooth="yes"/>
      <point x="404" y="191"/>
      <point x="487" y="220"/>
      <point x="551" y="237" type="curve"/>
      <point x="551" y="172" type="line"/>
      <point x="551" y="172"/>
      <point x="532" y="108"/>
    </contour>
  </outline>
</glyph>
<glyph name="A" format="1">
  <advance width="1038"/>
  <unicode hex="0041"/>
  <outline>
    <contour>
      <point x="541" y="0" type="line"/>
      <point x="1008" y="0" type="line"/>
      <point x="891" y="141" type="line"/>
      <point x="826" y="141" type="line"/>
      <point x="616" y="553" type="line"/>
      <point x="676" y="553" type="line"/>
      <point x="790" y="698" type="line"/>
      <point x="248" y="698" type="line"/>
      <point x="366" y="553" type="line"/>
      <point x="422" y="553" type="line"/>
      <point x="210" y="141" type="line"/>
      <point x="151" y="141" type="line"/>
      <point x="30" y="0" type="line"/>
      <point x="502" y="0" type="line"/>
      <point x="427" y="141" type="line"/>
      <point x="352" y="141" type="line"/>
      <point x="395" y="226" type="line"/>
      <point x="627" y="226" type="line"/>
      <point x="672" y="141" type="line"/>
      <point x="611" y="141" type="line"/>
    </contour>
    <contour>
      <point x="512" y="456" type="line"/>
      <point x="578" y="326" type="line"/>
      <point x="444" y="326" type="line"/>
    </contour>
  </outline>
</glyph>
<glyph name="B" format="1">
  <advance width="864"/>
  <unicode hex="0042"/>
  <outline>
    <contour>
      <point x="735" y="344" type="curve"/>
      <point x="790" y="376"/>
      <point x="829" y="426"/>
      <point x="829" y="503" type="curve" smooth="yes"/>
      <point x="829" y="573"/>
      <point x="788" y="625"/>
      <point x="750" y="653" type="curve" smooth="yes"/>
      <point x="681" y="703"/>
      <point x="530" y="700"/>
      <point x="530" y="700" type="curve"/>
      <point x="30" y="700" type="line"/>
      <point x="147" y="556" type="line"/>
      <point x="213" y="556" type="line"/>
      <point x="213" y="143" type="line"/>
      <point x="147" y="143" type="line"/>
      <point x="30" y="0" type="line"/>
      <point x="544" y="0" type="line"/>
      <point x="840" y="-7"/>
      <point x="834" y="184"/>
      <point x="834" y="184" type="curve"/>
      <point x="834" y="280"/>
      <point x="784" y="324"/>
    </contour>
    <contour>
      <point x="363" y="296" type="line"/>
      <point x="362" y="296" type="line"/>
    </contour>
    <contour>
      <point x="595" y="554" type="curve" smooth="yes"/>
      <point x="629" y="549"/>
      <point x="657" y="520"/>
      <point x="657" y="484" type="curve" smooth="yes"/>
      <point x="657" y="445"/>
      <point x="627" y="412"/>
      <point x="588" y="411" type="curve" smooth="yes"/>
      <point x="586" y="411"/>
      <point x="558" y="410"/>
      <point x="541" y="410" type="curve" smooth="yes"/>
      <point x="362" y="410" type="line"/>
      <point x="362" y="556" type="line"/>
      <point x="510" y="556" type="line"/>
      <point x="510" y="556"/>
      <point x="574" y="557"/>
    </contour>
    <contour>
      <point x="553" y="143" type="line"/>
      <point x="362" y="143" type="line"/>
      <point x="362" y="291" type="line"/>
      <point x="491" y="291" type="line" smooth="yes"/>
      <point x="548" y="291" type="line"/>
      <point x="491" y="291" type="line" smooth="yes"/>
      <point x="548" y="291" type="line" smooth="yes"/>
      <point x="562" y="290"/>
      <point x="576" y="290"/>
      <point x="582" y="289" type="curve" smooth="yes"/>
      <point x="593" y="288"/>
      <point x="605" y="286"/>
      <point x="615" y="280" type="curve" smooth="yes"/>
      <point x="639" y="270"/>
      <point x="657" y="252"/>
      <point x="657" y="217" type="curve" smooth="yes"/>
      <point x="657" y="143"/>
      <point x="584" y="143"/>
      <point x="584" y="143" type="curve"/>
    </contour>
  </outline>
</glyph>
<glyph name="C" format="1">
  <advance width="768"/>
  <unicode hex="0043"/>
  <outline>
    <contour>
      <point x="738" y="457" type="line"/>
      <point x="696" y="564"/>
      <point x="738" y="717"/>
      <point x="738" y="717" type="curve"/>
      <point x="611" y="632" type="line"/>
      <point x="608" y="627"/>
      <point x="605" y="621"/>
      <point x="602" y="613" type="curve"/>
      <point x="562" y="664"/>
      <point x="497" y="706"/>
      <point x="395" y="712" type="curve" smooth="yes"/>
      <point x="177" y="720"/>
      <point x="30" y="548"/>
      <point x="30" y="363" type="curve" smooth="yes"/>
      <point x="30" y="162"/>
      <point x="175" y="-13"/>
      <point x="412" y="-13" type="curve" smooth="yes"/>
      <point x="582" y="-13"/>
      <point x="679" y="86"/>
      <point x="738" y="239" type="curve"/>
      <point x="605" y="295" type="line"/>
      <point x="571" y="208"/>
      <point x="518" y="130"/>
      <point x="405" y="130" type="curve" smooth="yes"/>
      <point x="283" y="130"/>
      <point x="195" y="239"/>
      <point x="195" y="375" type="curve" smooth="yes"/>
      <point x="195" y="488"/>
      <point x="279" y="578"/>
      <point x="406" y="578" type="curve" smooth="yes"/>
      <point x="491" y="578"/>
      <point x="571" y="514"/>
      <point x="602" y="420" type="curve"/>
      <point x="608" y="409"/>
      <point x="611" y="400"/>
      <point x="611" y="400" type="curve"/>
    </contour>
  </outline>
</glyph>
<glyph name="D" format="1">
  <advance width="877"/>
  <unicode hex="0044"/>
  <outline>
    <contour>
      <point x="30" y="699" type="line"/>
      <point x="148" y="551" type="line"/>
      <point x="208" y="551" type="line"/>
      <point x="208" y="150" type="line"/>
      <point x="148" y="150" type="line"/>
      <point x="30" y="2" type="line"/>
      <point x="534" y="2" type="line"/>
      <point x="534" y="2"/>
      <point x="846" y="2"/>
      <point x="846" y="358" type="curve" smooth="yes"/>
      <point x="846" y="718"/>
      <point x="504" y="699"/>
      <point x="504" y="699" type="curve"/>
    </contour>
    <contour>
      <point x="445" y="150" type="curve"/>
      <point x="356" y="150" type="line"/>
      <point x="356" y="551" type="line"/>
      <point x="474" y="551" type="line"/>
      <point x="474" y="551"/>
      <point x="561" y="554"/>
      <point x="607" y="528" type="curve" smooth="yes"/>
      <point x="655" y="501"/>
      <point x="697" y="447"/>
      <point x="697" y="358" type="curve" smooth="yes"/>
      <point x="697" y="240"/>
      <point x="633" y="187"/>
      <point x="588" y="168" type="curve" smooth="yes"/>
      <point x="539" y="147"/>
      <point x="445" y="150"/>
    </contour>
  </outline>
</glyph>
<glyph name="E" format="1">
  <advance width="833"/>
  <unicode hex="0045"/>
  <outline>
    <contour>
      <point x="615" y="289" type="line"/>
      <point x="615" y="421" type="line"/>
      <point x="378" y="421" type="line"/>
      <point x="378" y="554" type="line"/>
      <point x="678" y="554" type="line"/>
      <point x="803" y="697" type="line"/>
      <point x="30" y="697" type="line"/>
      <point x="156" y="554" type="line"/>
      <point x="222" y="554" type="line"/>
      <point x="222" y="143" type="line"/>
      <point x="156" y="143" type="line"/>
      <point x="30" y="0" type="line"/>
      <point x="678" y="0" type="line"/>
      <point x="800" y="143" type="line"/>
      <point x="378" y="143" type="line"/>
      <point x="378" y="289" type="line"/>
    </contour>
  </outline>
</glyph>
<glyph name="F" format="1">
  <advance width="802"/>
  <unicode hex="0046"/>
  <outline>
    <contour>
      <point x="772" y="699" type="line"/>
      <point x="30" y="699" type="line"/>
      <point x="149" y="556" type="line"/>
      <point x="213" y="556" type="line"/>
      <point x="213" y="143" type="line"/>
      <point x="149" y="143" type="line"/>
      <point x="30" y="0" type="line"/>
      <point x="546" y="0" type="line"/>
      <point x="426" y="143" type="line"/>
      <point x="361" y="143" type="line"/>
      <point x="361" y="291" type="line"/>
      <point x="560" y="291" type="line"/>
      <point x="560" y="423" type="line"/>
      <point x="361" y="423" type="line"/>
      <point x="361" y="556" type="line"/>
      <point x="652" y="556" type="line"/>
    </contour>
  </outline>
</glyph>
<glyph name="G" format="1">
  <advance width="922"/>
  <unicode hex="0047"/>
  <outline>
    <contour>
      <point x="418" y="344" type="line"/>
      <point x="496" y="209" type="line"/>
      <point x="590" y="209" type="line"/>
      <point x="556" y="160"/>
      <point x="476" y="134"/>
      <point x="413" y="140" type="curve"/>
      <point x="292" y="148"/>
      <point x="203" y="239"/>
      <point x="203" y="375" type="curve" smooth="yes"/>
      <point x="203" y="489"/>
      <point x="301" y="576"/>
      <point x="418" y="576" type="curve" smooth="yes"/>
      <point x="512" y="576"/>
      <point x="587" y="516"/>
      <point x="616" y="421" type="curve" smooth="yes"/>
      <point x="620" y="411"/>
      <point x="623" y="400"/>
      <point x="623" y="400" type="curve"/>
      <point x="751" y="458" type="line"/>
      <point x="711" y="567"/>
      <point x="751" y="718"/>
      <point x="751" y="718" type="curve"/>
      <point x="623" y="637" type="line"/>
      <point x="623" y="631"/>
      <point x="620" y="627"/>
      <point x="620" y="624" type="curve"/>
      <point x="572" y="671"/>
      <point x="503" y="707"/>
      <point x="406" y="711" type="curve" smooth="yes"/>
      <point x="185" y="721"/>
      <point x="30" y="543"/>
      <point x="30" y="360" type="curve" smooth="yes"/>
      <point x="30" y="158"/>
      <point x="175" y="-10"/>
      <point x="411" y="-10" type="curve" smooth="yes"/>
      <point x="593" y="-10"/>
      <point x="697" y="91"/>
      <point x="738" y="209" type="curve"/>
      <point x="805" y="209" type="line"/>
      <point x="892" y="344" type="line"/>
    </contour>
  </outline>
</glyph>
<glyph name="H" format="1">
  <advance width="1041"/>
  <unicode hex="0048"/>
  <outline>
    <contour>
      <point x="824" y="555" type="line"/>
      <point x="893" y="555" type="line"/>
      <point x="1011" y="698" type="line"/>
      <point x="542" y="698" type="line"/>
      <point x="616" y="555" type="line"/>
      <point x="675" y="555" type="line"/>
      <point x="675" y="412" type="line"/>
      <point x="366" y="412" type="line"/>
      <point x="366" y="555" type="line"/>
      <point x="425" y="555" type="line"/>
      <point x="500" y="698" type="line"/>
      <point x="30" y="698" type="line"/>
      <point x="148" y="555" type="line"/>
      <point x="217" y="555" type="line"/>
      <point x="217" y="143" type="line"/>
      <point x="148" y="143" type="line"/>
      <point x="30" y="0" type="line"/>
      <point x="500" y="0" type="line"/>
      <point x="425" y="143" type="line"/>
      <point x="366" y="143" type="line"/>
      <point x="366" y="292" type="line"/>
      <point x="675" y="292" type="line"/>
      <point x="675" y="143" type="line"/>
      <point x="616" y="143" type="line"/>
      <point x="542" y="0" type="line"/>
      <point x="1011" y="0" type="line"/>
      <point x="893" y="143" type="line"/>
      <point x="824" y="143" type="line"/>
    </contour>
  </outline>
</glyph>
<glyph name="I" format="1">
  <advance width="577"/>
  <unicode hex="0049"/>
  <outline>
    <contour>
      <point x="363" y="556" type="line"/>
      <point x="428" y="556" type="line"/>
      <point x="547" y="699" type="line"/>
      <point x="30" y="699" type="line"/>
      <point x="150" y="556" type="line"/>
      <point x="214" y="556" type="line"/>
      <point x="214" y="143" type="line"/>
      <point x="150" y="143" type="line"/>
      <point x="30" y="0" type="line"/>
      <point x="547" y="0" type="line"/>
      <point x="428" y="143" type="line"/>
      <point x="363" y="143" type="line"/>
    </contour>
  </outline>
</glyph>
<glyph name="J" format="1">
  <advance width="747"/>
  <unicode hex="004A"/>
  <outline>
    <contour>
      <point x="717" y="700" type="line"/>
      <point x="200" y="700" type="line"/>
      <point x="319" y="555" type="line"/>
      <point x="394" y="555" type="line"/>
      <point x="394" y="279" type="line"/>
      <point x="394" y="279"/>
      <point x="394" y="226"/>
      <point x="391" y="205" type="curve" smooth="yes"/>
      <point x="381" y="149"/>
      <point x="330" y="124"/>
      <point x="283" y="124" type="curve" smooth="yes"/>
      <point x="245" y="124"/>
      <point x="192" y="145"/>
      <point x="178" y="197" type="curve"/>
      <point x="175" y="210" type="line"/>
      <point x="30" y="210" type="line"/>
      <point x="41" y="81"/>
      <point x="141" y="-13"/>
      <point x="298" y="-13" type="curve" smooth="yes"/>
      <point x="394" y="-13"/>
      <point x="475" y="35"/>
      <point x="515" y="110" type="curve" smooth="yes"/>
      <point x="548" y="174"/>
      <point x="545" y="289"/>
      <point x="545" y="289" type="curve"/>
      <point x="545" y="555" type="line"/>
      <point x="598" y="555" type="line"/>
    </contour>
  </outline>
</glyph>
<glyph name="K" format="1">
  <advance width="1089"/>
  <unicode hex="004B"/>
  <outline>
    <contour>
      <point x="1059" y="-2" type="line"/>
      <point x="938" y="143" type="line"/>
      <point x="888" y="143" type="line"/>
      <point x="610" y="379" type="line"/>
      <point x="866" y="559" type="line"/>
      <point x="925" y="559" type="line"/>
      <point x="1044" y="700" type="line"/>
      <point x="576" y="700" type="line"/>
      <point x="648" y="559" type="line"/>
      <point x="700" y="559" type="line"/>
      <point x="362" y="341" type="line"/>
      <point x="362" y="559" type="line"/>
      <point x="428" y="559" type="line"/>
      <point x="549" y="700" type="line"/>
      <point x="30" y="700" type="line"/>
      <point x="149" y="559" type="line"/>
      <point x="219" y="559" type="line"/>
      <point x="219" y="143" type="line"/>
      <point x="149" y="143" type="line"/>
      <point x="30" y="-2" type="line"/>
      <point x="549" y="-2" type="line"/>
      <point x="428" y="143" type="line"/>
      <point x="362" y="143" type="line"/>
      <point x="362" y="207" type="line"/>
      <point x="503" y="304" type="line"/>
      <point x="701" y="143" type="line"/>
      <point x="665" y="143" type="line"/>
      <point x="591" y="-2" type="line"/>
    </contour>
  </outline>
</glyph>
<glyph name="L" format="1">
  <advance width="779"/>
  <unicode hex="004C"/>
  <outline>
    <contour>
      <point x="360" y="556" type="line"/>
      <point x="422" y="556" type="line"/>
      <point x="543" y="699" type="line"/>
      <point x="30" y="699" type="line"/>
      <point x="147" y="556" type="line"/>
      <point x="210" y="556" type="line"/>
      <point x="210" y="143" type="line"/>
      <point x="147" y="143" type="line"/>
      <point x="30" y="2" type="line"/>
      <point x="631" y="2" type="line"/>
      <point x="749" y="143" type="line"/>
      <point x="360" y="143" type="line"/>
    </contour>
  </outline>
</glyph>
<glyph name="M" format="1">
  <advance width="1231"/>
  <unicode hex="004D"/>
  <outline>
    <contour>
      <point x="753" y="0" type="line"/>
      <point x="1201" y="0" type="line"/>
      <point x="1082" y="143" type="line"/>
      <point x="1021" y="143" type="line"/>
      <point x="1021" y="557" type="line"/>
      <point x="1080" y="557" type="line"/>
      <point x="1200" y="700" type="line"/>
      <point x="652" y="700" type="line"/>
      <point x="712" y="557" type="line"/>
      <point x="765" y="557" type="line"/>
      <point x="634" y="244" type="line"/>
      <point x="495" y="557" type="line"/>
      <point x="552" y="557" type="line"/>
      <point x="617" y="700" type="line"/>
      <point x="30" y="700" type="line"/>
      <point x="149" y="557" type="line"/>
      <point x="216" y="557" type="line"/>
      <point x="216" y="143" type="line"/>
      <point x="149" y="143" type="line"/>
      <point x="30" y="0" type="line"/>
      <point x="488" y="0" type="line"/>
      <point x="428" y="143" type="line"/>
      <point x="364" y="143" type="line"/>
      <point x="364" y="494" type="line"/>
      <point x="573" y="0" type="line"/>
      <point x="674" y="0" type="line"/>
      <point x="871" y="490" type="line"/>
      <point x="871" y="143" type="line"/>
      <point x="812" y="143" type="line"/>
    </contour>
  </outline>
</glyph>
<glyph name="N" format="1">
  <advance width="961"/>
  <unicode hex="004E"/>
  <outline>
    <contour>
      <point x="951" y="700" type="line"/>
      <point x="485" y="700" type="line"/>
      <point x="568" y="557" type="line"/>
      <point x="628" y="557" type="line"/>
      <point x="628" y="243" type="line"/>
      <point x="372" y="700" type="line"/>
      <point x="215" y="700" type="line"/>
      <point x="10" y="700" type="line"/>
      <point x="128" y="557" type="line"/>
      <point x="195" y="557" type="line"/>
      <point x="195" y="145" type="line"/>
      <point x="135" y="145" type="line"/>
      <point x="17" y="2" type="line"/>
      <point x="484" y="2" type="line"/>
      <point x="400" y="145" type="line"/>
      <point x="336" y="145" type="line"/>
      <point x="336" y="482" type="line"/>
      <point x="603" y="2" type="line"/>
      <point x="770" y="2" type="line"/>
      <point x="770" y="557" type="line"/>
      <point x="833" y="557" type="line"/>
    </contour>
  </outline>
</glyph>
<glyph name="O" format="1">
  <advance width="769"/>
  <unicode hex="004F"/>
  <outline>
    <contour>
      <point x="10" y="351" type="curve" smooth="yes"/>
      <point x="10" y="150"/>
      <point x="179" y="-14"/>
      <point x="385" y="-14" type="curve" smooth="yes"/>
      <point x="592" y="-14"/>
      <point x="759" y="150"/>
      <point x="759" y="351" type="curve" smooth="yes"/>
      <point x="759" y="552"/>
      <point x="592" y="714"/>
      <point x="385" y="714" type="curve" smooth="yes"/>
      <point x="179" y="714"/>
      <point x="10" y="552"/>
    </contour>
    <contour>
      <point x="179" y="351" type="curve" smooth="yes"/>
      <point x="179" y="472"/>
      <point x="271" y="572"/>
      <point x="385" y="572" type="curve" smooth="yes"/>
      <point x="500" y="572"/>
      <point x="592" y="472"/>
      <point x="592" y="351" type="curve" smooth="yes"/>
      <point x="592" y="227"/>
      <point x="500" y="128"/>
      <point x="385" y="128" type="curve" smooth="yes"/>
      <point x="271" y="128"/>
      <point x="179" y="227"/>
    </contour>
  </outline>
</glyph>
<glyph name="P" format="1">
  <advance width="860"/>
  <unicode hex="0050"/>
  <outline>
    <contour>
      <point x="532" y="698" type="curve"/>
      <point x="30" y="698" type="line"/>
      <point x="150" y="555" type="line"/>
      <point x="214" y="555" type="line"/>
      <point x="214" y="143" type="line"/>
      <point x="150" y="143" type="line"/>
      <point x="30" y="1" type="line"/>
      <point x="545" y="1" type="line"/>
      <point x="427" y="143" type="line"/>
      <point x="363" y="143" type="line"/>
      <point x="363" y="279" type="line"/>
      <point x="598" y="279" type="line" smooth="yes"/>
      <point x="744" y="279"/>
      <point x="830" y="353"/>
      <point x="830" y="502" type="curve" smooth="yes"/>
      <point x="830" y="572"/>
      <point x="789" y="623"/>
      <point x="751" y="652" type="curve" smooth="yes"/>
      <point x="683" y="702"/>
      <point x="532" y="698"/>
    </contour>
    <contour>
      <point x="541" y="410" type="line" smooth="yes"/>
      <point x="363" y="410" type="line"/>
      <point x="363" y="555" type="line"/>
      <point x="510" y="555" type="line"/>
      <point x="510" y="555"/>
      <point x="574" y="555"/>
      <point x="596" y="553" type="curve" smooth="yes"/>
      <point x="630" y="547"/>
      <point x="658" y="519"/>
      <point x="658" y="483" type="curve" smooth="yes"/>
      <point x="658" y="444"/>
      <point x="627" y="411"/>
      <point x="588" y="410" type="curve" smooth="yes"/>
    </contour>
  </outline>
</glyph>
<glyph name="Q" format="1">
  <advance width="800"/>
  <unicode hex="0051"/>
  <outline>
    <contour>
      <point x="400" y="712" type="curve" smooth="yes"/>
      <point x="193" y="712"/>
      <point x="27" y="549"/>
      <point x="27" y="351" type="curve" smooth="yes"/>
      <point x="27" y="150"/>
      <point x="193" y="-13"/>
      <point x="400" y="-13" type="curve" smooth="yes"/>
      <point x="483" y="-13"/>
      <point x="561" y="15"/>
      <point x="622" y="59" type="curve"/>
      <point x="773" y="-51" type="line"/>
      <point x="773" y="118" type="line"/>
      <point x="718" y="157" type="line"/>
      <point x="752" y="214"/>
      <point x="773" y="279"/>
      <point x="773" y="351" type="curve" smooth="yes"/>
      <point x="773" y="549"/>
      <point x="607" y="712"/>
    </contour>
    <contour>
      <point x="193" y="351" type="curve" smooth="yes"/>
      <point x="193" y="471"/>
      <point x="287" y="571"/>
      <point x="400" y="571" type="curve" smooth="yes"/>
      <point x="512" y="571"/>
      <point x="607" y="471"/>
      <point x="607" y="351" type="curve" smooth="yes"/>
      <point x="607" y="314"/>
      <point x="598" y="280"/>
      <point x="585" y="250" type="curve"/>
      <point x="520" y="295" type="line"/>
      <point x="356" y="253" type="line"/>
      <point x="493" y="153" type="line"/>
      <point x="464" y="137"/>
      <point x="433" y="128"/>
      <point x="400" y="128" type="curve" smooth="yes"/>
      <point x="287" y="128"/>
      <point x="193" y="227"/>
    </contour>
  </outline>
</glyph>
<glyph name="R" format="1">
  <advance width="1047"/>
  <unicode hex="0052"/>
  <outline>
    <contour>
      <point x="1017" y="-2" type="line"/>
      <point x="898" y="142" type="line"/>
      <point x="833" y="142" type="line"/>
      <point x="717" y="325" type="line"/>
      <point x="785" y="357"/>
      <point x="833" y="413"/>
      <point x="833" y="503" type="curve" smooth="yes"/>
      <point x="833" y="573"/>
      <point x="794" y="625"/>
      <point x="754" y="653" type="curve" smooth="yes"/>
      <point x="686" y="703"/>
      <point x="534" y="699"/>
      <point x="534" y="699" type="curve"/>
      <point x="31" y="699" type="line"/>
      <point x="151" y="555" type="line"/>
      <point x="215" y="555" type="line"/>
      <point x="215" y="142" type="line"/>
      <point x="149" y="142" type="line"/>
      <point x="30" y="-2" type="line"/>
      <point x="487" y="-2" type="line"/>
      <point x="413" y="142" type="line"/>
      <point x="365" y="142" type="line"/>
      <point x="365" y="294" type="line"/>
      <point x="560" y="294" type="line" smooth="yes"/>
      <point x="564" y="294" type="line" smooth="yes"/>
      <point x="660" y="142" type="line"/>
      <point x="604" y="142" type="line"/>
      <point x="530" y="-2" type="line"/>
    </contour>
    <contour>
      <point x="365" y="555" type="line"/>
      <point x="513" y="555" type="line"/>
      <point x="513" y="555"/>
      <point x="576" y="556"/>
      <point x="598" y="553" type="curve" smooth="yes"/>
      <point x="633" y="548"/>
      <point x="661" y="520"/>
      <point x="661" y="483" type="curve" smooth="yes"/>
      <point x="661" y="444"/>
      <point x="631" y="411"/>
      <point x="591" y="410" type="curve" smooth="yes"/>
      <point x="545" y="410" type="line" smooth="yes"/>
      <point x="365" y="410" type="line"/>
    </contour>
  </outline>
</glyph>
<glyph name="S" format="1">
  <advance width="790"/>
  <unicode hex="0053"/>
  <outline>
    <contour>
      <point x="227" y="546" type="curve" smooth="yes"/>
      <point x="242" y="610"/>
      <point x="512" y="627"/>
      <point x="588" y="477" type="curve"/>
      <point x="593" y="468"/>
      <point x="593" y="459"/>
      <point x="593" y="459" type="curve"/>
      <point x="714" y="516" type="line"/>
      <point x="675" y="622"/>
      <point x="714" y="732"/>
      <point x="714" y="732" type="curve"/>
      <point x="593" y="665" type="line"/>
      <point x="588" y="651"/>
      <point x="583" y="636"/>
      <point x="578" y="622" type="curve"/>
      <point x="530" y="665"/>
      <point x="453" y="713"/>
      <point x="324" y="713" type="curve" smooth="yes"/>
      <point x="49" y="713"/>
      <point x="34" y="563"/>
      <point x="34" y="563" type="curve"/>
      <point x="34" y="563"/>
      <point x="25" y="511"/>
      <point x="64" y="454" type="curve"/>
      <point x="64" y="454"/>
      <point x="116" y="372"/>
      <point x="261" y="328" type="curve"/>
      <point x="401" y="280"/>
      <point x="450" y="274"/>
      <point x="513" y="245" type="curve" smooth="yes"/>
      <point x="542" y="230"/>
      <point x="563" y="207"/>
      <point x="559" y="183" type="curve" smooth="yes"/>
      <point x="534" y="90"/>
      <point x="241" y="111"/>
      <point x="154" y="314" type="curve"/>
      <point x="30" y="255" type="line"/>
      <point x="68" y="154"/>
      <point x="30" y="15"/>
      <point x="30" y="15" type="curve"/>
      <point x="154" y="83" type="line"/>
      <point x="159" y="87"/>
      <point x="159" y="97"/>
      <point x="164" y="101" type="curve"/>
      <point x="227" y="39"/>
      <point x="324" y="-14"/>
      <point x="467" y="-14" type="curve" smooth="yes"/>
      <point x="728" y="-14"/>
      <point x="751" y="140"/>
      <point x="751" y="140" type="curve"/>
      <point x="751" y="140"/>
      <point x="810" y="343"/>
      <point x="477" y="420" type="curve" smooth="yes"/>
      <point x="246" y="477"/>
      <point x="218" y="509"/>
    </contour>
  </outline>
</glyph>
<glyph name="T" format="1">
  <advance width="919"/>
  <unicode hex="0054"/>
  <outline>
    <contour>
      <point x="889" y="700" type="line"/>
      <point x="30" y="700" type="line"/>
      <point x="160" y="557" type="line"/>
      <point x="388" y="557" type="line"/>
      <point x="388" y="144" type="line"/>
      <point x="316" y="144" type="line"/>
      <point x="203" y="0" type="line"/>
      <point x="718" y="0" type="line"/>
      <point x="603" y="144" type="line"/>
      <point x="531" y="144" type="line"/>
      <point x="531" y="557" type="line"/>
      <point x="775" y="557" type="line"/>
    </contour>
  </outline>
</glyph>
<glyph name="U" format="1">
  <advance width="1027"/>
  <unicode hex="0055"/>
  <outline>
    <contour>
      <point x="997" y="700" type="line"/>
      <point x="533" y="700" type="line"/>
      <point x="608" y="556" type="line"/>
      <point x="660" y="556" type="line"/>
      <point x="660" y="345" type="line"/>
      <point x="660" y="345"/>
      <point x="668" y="262"/>
      <point x="635" y="203" type="curve" smooth="yes"/>
      <point x="614" y="164"/>
      <point x="572" y="136"/>
      <point x="511" y="136" type="curve" smooth="yes"/>
      <point x="452" y="136"/>
      <point x="391" y="171"/>
      <point x="379" y="217" type="curve" smooth="yes"/>
      <point x="364" y="259"/>
      <point x="368" y="330"/>
      <point x="368" y="330" type="curve"/>
      <point x="368" y="556" type="line"/>
      <point x="419" y="556" type="line"/>
      <point x="494" y="700" type="line"/>
      <point x="30" y="700" type="line"/>
      <point x="149" y="556" type="line"/>
      <point x="216" y="556" type="line"/>
      <point x="216" y="270" type="line"/>
      <point x="216" y="270"/>
      <point x="215" y="204"/>
      <point x="247" y="136" type="curve" smooth="yes"/>
      <point x="283" y="66"/>
      <point x="356" y="-7"/>
      <point x="511" y="-7" type="curve" smooth="yes"/>
      <point x="820" y="-7"/>
      <point x="810" y="270"/>
      <point x="810" y="270" type="curve"/>
      <point x="810" y="556" type="line"/>
      <point x="878" y="556" type="line"/>
    </contour>
  </outline>
</glyph>
<glyph name="V" format="1">
  <advance width="1000"/>
  <unicode hex="0056"/>
  <outline>
    <contour>
      <point x="519" y="702" type="line"/>
      <point x="593" y="558" type="line"/>
      <point x="644" y="558" type="line"/>
      <point x="499" y="174" type="line"/>
      <point x="355" y="558" type="line"/>
      <point x="405" y="558" type="line"/>
      <point x="480" y="702" type="line"/>
      <point x="30" y="702" type="line"/>
      <point x="134" y="558" type="line"/>
      <point x="197" y="558" type="line"/>
      <point x="427" y="2" type="line"/>
      <point x="435" y="2" type="line"/>
      <point x="565" y="2" type="line"/>
      <point x="572" y="2" type="line"/>
      <point x="803" y="558" type="line"/>
      <point x="866" y="558" type="line"/>
      <point x="970" y="702" type="line"/>
    </contour>
  </outline>
</glyph>
<glyph name="W" format="1">
  <advance width="1450"/>
  <unicode hex="0057"/>
  <outline>
    <contour>
      <point x="968" y="699" type="line"/>
      <point x="1042" y="556" type="line"/>
      <point x="1105" y="556" type="line"/>
      <point x="962" y="171" type="line"/>
      <point x="816" y="554" type="line"/>
      <point x="869" y="554" type="line"/>
      <point x="944" y="699" type="line"/>
      <point x="507" y="699" type="line"/>
      <point x="580" y="554" type="line"/>
      <point x="634" y="554" type="line"/>
      <point x="489" y="171" type="line"/>
      <point x="343" y="554" type="line"/>
      <point x="407" y="554" type="line"/>
      <point x="482" y="699" type="line"/>
      <point x="30" y="699" type="line"/>
      <point x="120" y="554" type="line"/>
      <point x="185" y="554" type="line"/>
      <point x="415" y="-2" type="line"/>
      <point x="565" y="-2" type="line"/>
      <point x="725" y="429" type="line"/>
      <point x="885" y="-2" type="line"/>
      <point x="1035" y="-2" type="line"/>
      <point x="1265" y="556" type="line"/>
      <point x="1330" y="556" type="line"/>
      <point x="1420" y="699" type="line"/>
    </contour>
  </outline>
</glyph>
<glyph name="X" format="1">
  <advance width="1019"/>
  <unicode hex="0058"/>
  <outline>
    <contour>
      <point x="989" y="2" type="line"/>
      <point x="884" y="145" type="line"/>
      <point x="815" y="145" type="line"/>
      <point x="595" y="350" type="line"/>
      <point x="812" y="558" type="line"/>
      <point x="884" y="558" type="line"/>
      <point x="989" y="702" type="line"/>
      <point x="522" y="702" type="line"/>
      <point x="596" y="558" type="line"/>
      <point x="640" y="558" type="line"/>
      <point x="507" y="433" type="line"/>
      <point x="373" y="558" type="line"/>
      <point x="423" y="558" type="line"/>
      <point x="497" y="702" type="line"/>
      <point x="30" y="702" type="line"/>
      <point x="136" y="558" type="line"/>
      <point x="201" y="558" type="line"/>
      <point x="419" y="350" type="line"/>
      <point x="199" y="145" type="line"/>
      <point x="136" y="145" type="line"/>
      <point x="30" y="2" type="line"/>
      <point x="498" y="2" type="line"/>
      <point x="424" y="145" type="line"/>
      <point x="378" y="145" type="line"/>
      <point x="507" y="268" type="line"/>
      <point x="635" y="145" type="line"/>
      <point x="597" y="145" type="line"/>
      <point x="523" y="2" type="line"/>
    </contour>
  </outline>
</glyph>
<glyph name="Y" format="1">
  <advance width="1015"/>
  <unicode hex="0059"/>
  <outline>
    <contour>
      <point x="867" y="557" type="line"/>
      <point x="985" y="700" type="line"/>
      <point x="528" y="700" type="line"/>
      <point x="587" y="557" type="line"/>
      <point x="649" y="557" type="line"/>
      <point x="518" y="395" type="line"/>
      <point x="376" y="557" type="line"/>
      <point x="428" y="557" type="line"/>
      <point x="488" y="700" type="line"/>
      <point x="30" y="700" type="line"/>
      <point x="149" y="557" type="line"/>
      <point x="215" y="557" type="line"/>
      <point x="435" y="296" type="line"/>
      <point x="435" y="143" type="line"/>
      <point x="371" y="143" type="line"/>
      <point x="251" y="0" type="line"/>
      <point x="769" y="0" type="line"/>
      <point x="649" y="143" type="line"/>
      <point x="584" y="143" type="line"/>
      <point x="584" y="295" type="line"/>
      <point x="787" y="557" type="line"/>
    </contour>
  </outline>
</glyph>
<glyph name="Z" format="1">
  <advance width="802"/>
  <unicode hex="005A"/>
  <outline>
    <contour>
      <point x="761" y="697" type="line"/>
      <point x="50" y="697" type="line"/>
      <point x="170" y="554" type="line"/>
      <point x="475" y="554" type="line"/>
      <point x="30" y="2" type="line"/>
      <point x="772" y="2" type="line"/>
      <point x="653" y="145" type="line"/>
      <point x="320" y="145" type="line"/>
    </contour>
  </outline>
</glyph>
<glyph name="bracketleft" format="1">
  <advance width="419"/>
  <unicode hex="005B"/>
  <outline>
    <contour>
      <point x="267" y="0" type="line"/>
      <point x="163" y="0" type="line"/>
      <point x="163" y="700" type="line"/>
      <point x="267" y="700" type="line"/>
      <point x="389" y="824" type="line"/>
      <point x="30" y="824" type="line"/>
      <point x="30" y="-123" type="line"/>
      <point x="389" y="-123" type="line"/>
    </contour>
  </outline>
</glyph>
<glyph name="backslash" format="1">
  <advance width="509"/>
  <unicode hex="005C"/>
  <outline>
    <contour>
      <point x="342" y="-48" type="line"/>
      <point x="30" y="700" type="line"/>
      <point x="166" y="700" type="line"/>
      <point x="479" y="-48" type="line"/>
    </contour>
  </outline>
</glyph>
<glyph name="bracketright" format="1">
  <advance width="419"/>
  <unicode hex="005D"/>
  <outline>
    <contour>
      <point x="152" y="700" type="line"/>
      <point x="256" y="700" type="line"/>
      <point x="256" y="0" type="line"/>
      <point x="152" y="0" type="line"/>
      <point x="30" y="-124" type="line"/>
      <point x="389" y="-124" type="line"/>
      <point x="389" y="823" type="line"/>
      <point x="30" y="823" type="line"/>
    </contour>
  </outline>
</glyph>
<glyph name="asciicircum" format="1">
  <advance width="556"/>
  <unicode hex="005E"/>
  <outline>
    <contour>
      <point x="526" y="290" type="line"/>
      <point x="526" y="289" type="line"/>
      <point x="412" y="289" type="line"/>
      <point x="278" y="509" type="line"/>
      <point x="148" y="289" type="line"/>
      <point x="30" y="289" type="line"/>
      <point x="30" y="290" type="line"/>
      <point x="278" y="709" type="line"/>
    </contour>
  </outline>
</glyph>
<glyph name="underscore" format="1">
  <advance width="699"/>
  <unicode hex="005F"/>
  <outline>
    <contour>
      <point x="588" y="-60" type="line"/>
      <point x="111" y="-60" type="line"/>
      <point x="30" y="-181" type="line"/>
      <point x="669" y="-181" type="line"/>
    </contour>
  </outline>
</glyph>
<glyph name="grave" format="1">
  <advance width="300"/>
  <unicode hex="0060"/>
  <outline>
    <contour>
      <point x="270" y="574" type="line"/>
      <point x="148" y="574" type="line"/>
      <point x="30" y="697" type="line"/>
      <point x="40" y="714" type="line"/>
      <point x="186" y="714" type="line"/>
    </contour>
  </outline>
</glyph>
<glyph name="a" format="1">
  <advance width="595"/>
  <unicode hex="0061"/>
  <outline>
    <contour>
      <point x="584.437" y="140" type="curve" smooth="yes"/>
      <point x="581.437" y="145"/>
      <point x="576.437" y="149"/>
      <point x="576.437" y="149" type="curve"/>
      <point x="567.437" y="148" type="line"/>
      <point x="566.437" y="140"/>
      <point x="561.437" y="132"/>
      <point x="557.437" y="130" type="curve" smooth="yes"/>
      <point x="545.437" y="112"/>
      <point x="500.437" y="113"/>
      <point x="500.437" y="163" type="curve" smooth="yes"/>
      <point x="503.437" y="307" type="line" smooth="yes"/>
      <point x="507.437" y="497"/>
      <point x="369.437" y="517"/>
      <point x="289.437" y="517" type="curve" smooth="yes"/>
      <point x="278.437" y="517"/>
      <point x="245.693" y="515.484"/>
      <point x="226.437" y="513" type="curve" smooth="yes"/>
      <point x="133.437" y="501"/>
      <point x="72.4365" y="461"/>
      <point x="60.4365" y="403" type="curve" smooth="yes"/>
      <point x="59.4365" y="398"/>
      <point x="58.4365" y="392"/>
      <point x="58.4365" y="384" type="curve" smooth="yes"/>
      <point x="58.4365" y="326"/>
      <point x="105.437" y="297"/>
      <point x="157.437" y="297" type="curve" smooth="yes"/>
      <point x="209.437" y="297"/>
      <point x="236.437" y="318"/>
      <point x="243.437" y="340" type="curve"/>
      <point x="237.437" y="347" type="line"/>
      <point x="235.437" y="346"/>
      <point x="232.437" y="344"/>
      <point x="227.437" y="344" type="curve" smooth="yes"/>
      <point x="222.437" y="344" type="line" smooth="yes"/>
      <point x="203.437" y="347"/>
      <point x="194.437" y="358"/>
      <point x="194.437" y="375" type="curve" smooth="yes"/>
      <point x="194.437" y="398"/>
      <point x="221.437" y="436"/>
      <point x="263.437" y="436" type="curve" smooth="yes"/>
      <point x="269.437" y="436"/>
      <point x="278.472" y="436.28"/>
      <point x="287.437" y="435" type="curve" smooth="yes"/>
      <point x="343.437" y="427"/>
      <point x="352.437" y="363"/>
      <point x="352.437" y="315" type="curve" smooth="yes"/>
      <point x="352.437" y="311" type="line"/>
      <point x="217.437" y="280"/>
      <point x="30.4365" y="242"/>
      <point x="30.4365" y="117" type="curve" smooth="yes"/>
      <point x="30.4365" y="21"/>
      <point x="126.437" y="-18"/>
      <point x="212.437" y="-18" type="curve" smooth="yes"/>
      <point x="318.437" y="-18"/>
      <point x="359.437" y="51"/>
      <point x="359.437" y="51" type="curve"/>
      <point x="393.437" y="-12"/>
      <point x="471.437" y="-38"/>
      <point x="547.437" y="3" type="curve" smooth="yes"/>
      <point x="614.437" y="40"/>
      <point x="603.437" y="103"/>
      <point x="589.437" y="131" type="curve"/>
      <point x="589.437" y="131"/>
      <point x="586.437" y="136"/>
    </contour>
    <contour>
      <point x="268.437" y="84" type="curve" smooth="yes"/>
      <point x="229.48" y="81.8945"/>
      <point x="203.437" y="112"/>
      <point x="203.437" y="140" type="curve" smooth="yes"/>
      <point x="203.437" y="185"/>
      <point x="286.437" y="227"/>
      <point x="351.437" y="245" type="curve"/>
      <point x="351.437" y="166" type="line"/>
      <point x="351.437" y="166"/>
      <point x="342.437" y="88"/>
    </contour>
  </outline>
</glyph>
<glyph name="b" format="1">
  <advance width="633"/>
  <unicode hex="0062"/>
  <outline>
    <contour>
      <point x="333" y="498" type="curve" smooth="yes"/>
      <point x="288" y="490"/>
      <point x="240" y="457"/>
      <point x="223" y="413" type="curve"/>
      <point x="223" y="700" type="line"/>
      <point x="-50" y="700" type="line"/>
      <point x="56" y="558" type="line"/>
      <point x="85" y="558" type="line"/>
      <point x="85" y="-12" type="line"/>
      <point x="193" y="71" type="line"/>
      <point x="221" y="26"/>
      <point x="273" y="-12"/>
      <point x="370" y="-12" type="curve" smooth="yes"/>
      <point x="606" y="-12"/>
      <point x="603" y="236"/>
      <point x="603" y="236" type="curve"/>
      <point x="603" y="395"/>
      <point x="518" y="530"/>
    </contour>
    <contour>
      <point x="223" y="213" type="curve"/>
      <point x="223" y="236" type="line" smooth="yes"/>
      <point x="225" y="309"/>
      <point x="251" y="393"/>
      <point x="338" y="393" type="curve" smooth="yes"/>
      <point x="461" y="393"/>
      <point x="454" y="229"/>
      <point x="454" y="229" type="curve"/>
      <point x="454" y="229"/>
      <point x="459" y="79"/>
      <point x="339" y="78" type="curve" smooth="yes"/>
      <point x="240" y="78"/>
      <point x="225" y="181"/>
    </contour>
  </outline>
</glyph>
<glyph name="c" format="1">
  <advance width="530"/>
  <unicode hex="0063"/>
  <outline>
    <contour>
      <point x="313" y="83" type="curve" smooth="yes"/>
      <point x="230" y="83"/>
      <point x="187" y="160"/>
      <point x="187" y="251" type="curve" smooth="yes"/>
      <point x="187" y="340"/>
      <point x="230" y="419"/>
      <point x="313" y="419" type="curve" smooth="yes"/>
      <point x="375" y="419"/>
      <point x="412" y="367"/>
      <point x="428" y="316" type="curve"/>
      <point x="520" y="429" type="line"/>
      <point x="469" y="483"/>
      <point x="394" y="516"/>
      <point x="313" y="516" type="curve" smooth="yes"/>
      <point x="162" y="516"/>
      <point x="30" y="406"/>
      <point x="30" y="251" type="curve" smooth="yes"/>
      <point x="30" y="90"/>
      <point x="162" y="-15"/>
      <point x="313" y="-15" type="curve" smooth="yes"/>
      <point x="394" y="-15"/>
      <point x="469" y="19"/>
      <point x="518" y="73" type="curve"/>
      <point x="428" y="183" type="line"/>
      <point x="411" y="134"/>
      <point x="373" y="83"/>
    </contour>
  </outline>
</glyph>
<glyph name="d" format="1">
  <advance width="689"/>
  <unicode hex="0064"/>
  <outline>
    <contour>
      <point x="576" y="146" type="line"/>
      <point x="543" y="146" type="line"/>
      <point x="543" y="376" type="line"/>
      <point x="543" y="698" type="line"/>
      <point x="407" y="698" type="line"/>
      <point x="272" y="698" type="line"/>
      <point x="375" y="561" type="line"/>
      <point x="407" y="561" type="line"/>
      <point x="407" y="417" type="line"/>
      <point x="396" y="459"/>
      <point x="351" y="496"/>
      <point x="304" y="505" type="curve" smooth="yes"/>
      <point x="118" y="541"/>
      <point x="30" y="396"/>
      <point x="30" y="238" type="curve"/>
      <point x="30" y="238"/>
      <point x="32" y="-12"/>
      <point x="262" y="-12" type="curve" smooth="yes"/>
      <point x="348" y="-12"/>
      <point x="387" y="32"/>
      <point x="407" y="82" type="curve"/>
      <point x="407" y="0" type="line"/>
      <point x="543" y="0" type="line"/>
      <point x="679" y="0" type="line"/>
    </contour>
    <contour>
      <point x="177" y="238" type="curve"/>
      <point x="177" y="238"/>
      <point x="177" y="406"/>
      <point x="292" y="406" type="curve" smooth="yes"/>
      <point x="375" y="406"/>
      <point x="407" y="323"/>
      <point x="407" y="249" type="curve" smooth="yes"/>
      <point x="407" y="229" type="line" smooth="yes"/>
      <point x="407" y="197"/>
      <point x="396" y="95"/>
      <point x="292" y="95" type="curve" smooth="yes"/>
      <point x="177" y="95"/>
      <point x="177" y="238"/>
    </contour>
  </outline>
</glyph>
<glyph name="e" format="1">
  <advance width="578"/>
  <unicode hex="0065"/>
  <outline>
    <contour>
      <point x="298" y="518" type="curve" smooth="yes"/>
      <point x="146" y="518"/>
      <point x="30" y="399"/>
      <point x="30" y="251" type="curve" smooth="yes"/>
      <point x="30" y="104"/>
      <point x="156" y="-16"/>
      <point x="307" y="-16" type="curve" smooth="yes"/>
      <point x="386" y="-16"/>
      <point x="472" y="3"/>
      <point x="534" y="72" type="curve"/>
      <point x="447" y="177" type="line"/>
      <point x="428" y="128"/>
      <point x="380" y="78"/>
      <point x="315" y="78" type="curve" smooth="yes"/>
      <point x="242" y="78"/>
      <point x="190" y="146"/>
      <point x="184" y="218" type="curve"/>
      <point x="553" y="218" type="line"/>
      <point x="553" y="251" type="line" smooth="yes"/>
      <point x="553" y="399"/>
      <point x="451" y="518"/>
    </contour>
    <contour>
      <point x="396" y="308" type="curve"/>
      <point x="188" y="308" type="line"/>
      <point x="199" y="366"/>
      <point x="233" y="421"/>
      <point x="297" y="421" type="curve" smooth="yes"/>
      <point x="354" y="421"/>
      <point x="385" y="366"/>
    </contour>
  </outline>
</glyph>
<glyph name="f" format="1">
  <advance width="438"/>
  <unicode hex="0066"/>
  <outline>
    <contour>
      <point x="277" y="400" type="line"/>
      <point x="329" y="400" type="line"/>
      <point x="399" y="489" type="line"/>
      <point x="275" y="489" type="line"/>
      <point x="273" y="526"/>
      <point x="277" y="535"/>
      <point x="279" y="542" type="curve" smooth="yes"/>
      <point x="290" y="592"/>
      <point x="360" y="587"/>
      <point x="371" y="561" type="curve"/>
      <point x="438" y="676" type="line"/>
      <point x="438" y="676"/>
      <point x="382" y="709"/>
      <point x="316" y="707" type="curve" smooth="yes"/>
      <point x="312" y="707" type="line" smooth="yes"/>
      <point x="236" y="700"/>
      <point x="144" y="659"/>
      <point x="142" y="516" type="curve"/>
      <point x="142" y="516"/>
      <point x="140" y="507"/>
      <point x="140" y="489" type="curve"/>
      <point x="92" y="489" type="line"/>
      <point x="20" y="400" type="line"/>
      <point x="140" y="400" type="line"/>
      <point x="140" y="137" type="line"/>
      <point x="114" y="137" type="line"/>
      <point x="10" y="0" type="line"/>
      <point x="408" y="0" type="line"/>
      <point x="303" y="137" type="line"/>
      <point x="277" y="137" type="line"/>
    </contour>
  </outline>
</glyph>
<glyph name="g" format="1">
  <advance width="690"/>
  <unicode hex="0067"/>
  <outline>
    <contour>
      <point x="208" y="202" type="curve"/>
      <point x="246" y="190"/>
      <point x="290" y="182"/>
      <point x="337" y="182" type="curve" smooth="yes"/>
      <point x="488" y="182"/>
      <point x="610" y="257"/>
      <point x="610" y="349" type="curve" smooth="yes"/>
      <point x="610" y="392"/>
      <point x="584" y="430"/>
      <point x="543" y="459" type="curve" smooth="yes"/>
      <point x="538" y="463"/>
      <point x="533" y="465"/>
      <point x="527" y="469" type="curve"/>
      <point x="513" y="476" type="line"/>
      <point x="514" y="484"/>
      <point x="518" y="491"/>
      <point x="526" y="497" type="curve" smooth="yes"/>
      <point x="554" y="522"/>
      <point x="602" y="491"/>
      <point x="590" y="458" type="curve" smooth="yes"/>
      <point x="589" y="455"/>
      <point x="587" y="450"/>
      <point x="583" y="446" type="curve"/>
      <point x="585" y="441" type="line"/>
      <point x="593" y="441" type="line" smooth="yes"/>
      <point x="597" y="441"/>
      <point x="600" y="443"/>
      <point x="600" y="443" type="curve" smooth="yes"/>
      <point x="620" y="448"/>
      <point x="664" y="468"/>
      <point x="663" y="516" type="curve" smooth="yes"/>
      <point x="659" y="586"/>
      <point x="577" y="613"/>
      <point x="518" y="572" type="curve" smooth="yes"/>
      <point x="492" y="552"/>
      <point x="481" y="517"/>
      <point x="482" y="490" type="curve"/>
      <point x="440" y="506"/>
      <point x="390" y="516"/>
      <point x="337" y="516" type="curve" smooth="yes"/>
      <point x="187" y="516"/>
      <point x="65" y="441"/>
      <point x="65" y="349" type="curve" smooth="yes"/>
      <point x="65" y="304"/>
      <point x="93" y="263"/>
      <point x="141" y="233" type="curve"/>
      <point x="94" y="210"/>
      <point x="50" y="172"/>
      <point x="50" y="115" type="curve" smooth="yes"/>
      <point x="50" y="71"/>
      <point x="78" y="45"/>
      <point x="117" y="27" type="curve"/>
      <point x="82" y="9"/>
      <point x="30" y="-27"/>
      <point x="30" y="-79" type="curve" smooth="yes"/>
      <point x="30" y="-164"/>
      <point x="202" y="-214"/>
      <point x="336" y="-215" type="curve" smooth="yes"/>
      <point x="458" y="-215"/>
      <point x="670" y="-178"/>
      <point x="670" y="-23" type="curve" smooth="yes"/>
      <point x="670" y="136"/>
      <point x="508" y="132"/>
      <point x="334" y="126" type="curve" smooth="yes"/>
      <point x="205" y="122"/>
      <point x="151" y="160"/>
    </contour>
    <contour>
      <point x="445" y="349" type="curve" smooth="yes"/>
      <point x="445" y="307"/>
      <point x="401" y="262"/>
      <point x="337" y="262" type="curve" smooth="yes"/>
      <point x="271" y="262"/>
      <point x="229" y="307"/>
      <point x="229" y="349" type="curve" smooth="yes"/>
      <point x="229" y="395"/>
      <point x="271" y="436"/>
      <point x="337" y="436" type="curve" smooth="yes"/>
      <point x="401" y="436"/>
      <point x="445" y="395"/>
    </contour>
    <contour>
      <point x="217" y="2" type="curve"/>
      <point x="263" y="-3"/>
      <point x="307" y="-3"/>
      <point x="330" y="-3" type="curve" smooth="yes"/>
      <point x="425" y="-3"/>
      <point x="492" y="13"/>
      <point x="492" y="-40" type="curve" smooth="yes"/>
      <point x="492" y="-67"/>
      <point x="440" y="-106"/>
      <point x="340" y="-102" type="curve" smooth="yes"/>
      <point x="265" y="-99"/>
      <point x="134" y="-81"/>
    </contour>
  </outline>
</glyph>
<glyph name="h" format="1">
  <advance width="784"/>
  <unicode hex="0068"/>
  <outline>
    <contour>
      <point x="674" y="141" type="line"/>
      <point x="650" y="141" type="line"/>
      <point x="650" y="240" type="line" smooth="yes"/>
      <point x="650" y="393"/>
      <point x="575" y="528"/>
      <point x="390" y="499" type="curve" smooth="yes"/>
      <point x="345" y="492"/>
      <point x="296" y="455"/>
      <point x="282" y="412" type="curve"/>
      <point x="282" y="699" type="line"/>
      <point x="10" y="699" type="line"/>
      <point x="115" y="555" type="line"/>
      <point x="144" y="555" type="line"/>
      <point x="144" y="141" type="line"/>
      <point x="115" y="141" type="line"/>
      <point x="10" y="2" type="line"/>
      <point x="383" y="2" type="line"/>
      <point x="306" y="141" type="line"/>
      <point x="282" y="141" type="line"/>
      <point x="282" y="229" type="line"/>
      <point x="284" y="299"/>
      <point x="305" y="395"/>
      <point x="394" y="395" type="curve" smooth="yes"/>
      <point x="517" y="395"/>
      <point x="509" y="234"/>
      <point x="509" y="234" type="curve"/>
      <point x="509" y="141" type="line"/>
      <point x="483" y="141" type="line"/>
      <point x="406" y="2" type="line"/>
      <point x="779" y="2" type="line"/>
    </contour>
  </outline>
</glyph>
<glyph name="i" format="1">
  <advance width="436"/>
  <unicode hex="0069"/>
  <outline>
    <contour>
      <point x="10" y="0" type="line"/>
      <point x="416" y="0" type="line"/>
      <point x="309" y="139" type="line"/>
      <point x="277" y="139" type="line"/>
      <point x="277" y="501" type="line"/>
      <point x="10" y="501" type="line"/>
      <point x="127" y="351" type="line"/>
      <point x="149" y="351" type="line"/>
      <point x="149" y="139" type="line"/>
      <point x="127" y="139" type="line"/>
    </contour>
    <contour>
      <point x="297" y="618" type="curve" smooth="yes"/>
      <point x="297" y="665"/>
      <point x="257" y="704"/>
      <point x="207" y="704" type="curve" smooth="yes"/>
      <point x="158" y="704"/>
      <point x="117" y="665"/>
      <point x="117" y="618" type="curve" smooth="yes"/>
      <point x="117" y="570"/>
      <point x="158" y="531"/>
      <point x="207" y="531" type="curve" smooth="yes"/>
      <point x="257" y="531"/>
      <point x="297" y="570"/>
    </contour>
  </outline>
</glyph>
<glyph name="j" format="1">
  <advance width="360"/>
  <unicode hex="006A"/>
  <outline>
    <contour>
      <point x="106" y="-211" type="line"/>
      <point x="183" y="-216"/>
      <point x="280" y="-190"/>
      <point x="305" y="-47" type="curve"/>
      <point x="305" y="-47"/>
      <point x="312" y="0"/>
      <point x="312" y="49" type="curve" smooth="yes"/>
      <point x="312" y="502" type="line"/>
      <point x="42" y="502" type="line"/>
      <point x="147" y="361" type="line"/>
      <point x="173" y="361" type="line"/>
      <point x="173" y="90" type="line" smooth="yes"/>
      <point x="173" y="-26"/>
      <point x="168" y="-41"/>
      <point x="165" y="-52" type="curve" smooth="yes"/>
      <point x="147" y="-101"/>
      <point x="77" y="-84"/>
      <point x="69" y="-59" type="curve"/>
      <point x="-15" y="-162" type="line"/>
      <point x="-15" y="-162"/>
      <point x="37" y="-204"/>
      <point x="104" y="-211" type="curve" smooth="yes"/>
    </contour>
    <contour>
      <point x="330" y="618" type="curve" smooth="yes"/>
      <point x="330" y="666"/>
      <point x="290" y="704"/>
      <point x="240" y="704" type="curve" smooth="yes"/>
      <point x="191" y="704"/>
      <point x="152" y="666"/>
      <point x="152" y="618" type="curve" smooth="yes"/>
      <point x="152" y="572"/>
      <point x="191" y="534"/>
      <point x="240" y="534" type="curve" smooth="yes"/>
      <point x="290" y="534"/>
      <point x="330" y="572"/>
    </contour>
  </outline>
</glyph>
<glyph name="k" format="1">
  <advance width="806"/>
  <unicode hex="006B"/>
  <outline>
    <contour>
      <point x="791" y="2" type="line"/>
      <point x="685" y="142" type="line"/>
      <point x="666" y="142" type="line"/>
      <point x="516" y="313" type="line"/>
      <point x="630" y="387" type="line"/>
      <point x="664" y="387" type="line"/>
      <point x="750" y="500" type="line"/>
      <point x="383" y="500" type="line"/>
      <point x="444" y="387" type="line"/>
      <point x="481" y="387" type="line"/>
      <point x="281" y="262" type="line"/>
      <point x="281" y="703" type="line"/>
      <point x="10" y="703" type="line"/>
      <point x="116" y="562" type="line"/>
      <point x="143" y="562" type="line"/>
      <point x="143" y="142" type="line"/>
      <point x="116" y="142" type="line"/>
      <point x="10" y="2" type="line"/>
      <point x="387" y="2" type="line"/>
      <point x="386" y="2" type="line"/>
      <point x="387" y="2" type="line"/>
      <point x="308" y="142" type="line"/>
      <point x="284" y="142" type="line"/>
      <point x="284" y="161" type="line"/>
      <point x="422" y="251" type="line"/>
      <point x="517" y="142" type="line"/>
      <point x="493" y="142" type="line"/>
      <point x="414" y="2" type="line"/>
    </contour>
  </outline>
</glyph>
<glyph name="l" format="1">
  <advance width="424"/>
  <unicode hex="006C"/>
  <outline>
    <contour>
      <point x="10" y="0" type="line"/>
      <point x="414" y="0" type="line"/>
      <point x="308" y="139" type="line"/>
      <point x="281" y="139" type="line"/>
      <point x="281" y="700" type="line"/>
      <point x="10" y="700" type="line"/>
      <point x="115" y="560" type="line"/>
      <point x="143" y="560" type="line"/>
      <point x="143" y="139" type="line"/>
      <point x="115" y="139" type="line"/>
    </contour>
  </outline>
</glyph>
<glyph name="m" format="1">
  <advance width="1172"/>
  <unicode hex="006D"/>
  <outline>
    <contour>
      <point x="862" y="143" type="line"/>
      <point x="783" y="1" type="line"/>
      <point x="1162" y="1" type="line"/>
      <point x="1057" y="143" type="line"/>
      <point x="1031" y="143" type="line"/>
      <point x="1031" y="243" type="line" smooth="yes"/>
      <point x="1031" y="398"/>
      <point x="957" y="530"/>
      <point x="768" y="506" type="curve" smooth="yes"/>
      <point x="713" y="498"/>
      <point x="666" y="472"/>
      <point x="627" y="416" type="curve"/>
      <point x="588" y="484"/>
      <point x="509" y="524"/>
      <point x="394" y="506" type="curve" smooth="yes"/>
      <point x="350" y="498"/>
      <point x="299" y="462"/>
      <point x="285" y="417" type="curve"/>
      <point x="285" y="502" type="line"/>
      <point x="10" y="502" type="line"/>
      <point x="117" y="359" type="line"/>
      <point x="145" y="359" type="line"/>
      <point x="145" y="143" type="line"/>
      <point x="117" y="143" type="line"/>
      <point x="10" y="1" type="line"/>
      <point x="389" y="1" type="line"/>
      <point x="312" y="143" type="line"/>
      <point x="285" y="143" type="line"/>
      <point x="285" y="232" type="line"/>
      <point x="289" y="302"/>
      <point x="311" y="401"/>
      <point x="400" y="401" type="curve" smooth="yes"/>
      <point x="524" y="401"/>
      <point x="517" y="237"/>
      <point x="517" y="237" type="curve"/>
      <point x="517" y="143" type="line"/>
      <point x="491" y="143" type="line"/>
      <point x="409" y="1" type="line"/>
      <point x="764" y="1" type="line"/>
      <point x="685" y="143" type="line"/>
      <point x="658" y="143" type="line"/>
      <point x="658" y="235" type="line"/>
      <point x="663" y="305"/>
      <point x="685" y="401"/>
      <point x="772" y="401" type="curve" smooth="yes"/>
      <point x="896" y="401"/>
      <point x="888" y="237"/>
      <point x="888" y="237" type="curve"/>
      <point x="888" y="143" type="line"/>
    </contour>
  </outline>
</glyph>
<glyph name="n" format="1">
  <advance width="797"/>
  <unicode hex="006E"/>
  <outline>
    <contour>
      <point x="680" y="142" type="line"/>
      <point x="655" y="142" type="line"/>
      <point x="655" y="241" type="line" smooth="yes"/>
      <point x="655" y="396"/>
      <point x="581" y="533"/>
      <point x="394" y="503" type="curve" smooth="yes"/>
      <point x="348" y="496"/>
      <point x="298" y="460"/>
      <point x="284" y="414" type="curve"/>
      <point x="284" y="500" type="line"/>
      <point x="10" y="500" type="line"/>
      <point x="116" y="356" type="line"/>
      <point x="145" y="356" type="line"/>
      <point x="145" y="142" type="line"/>
      <point x="116" y="142" type="line"/>
      <point x="10" y="1" type="line"/>
      <point x="388" y="1" type="line"/>
      <point x="309" y="142" type="line"/>
      <point x="284" y="142" type="line"/>
      <point x="284" y="230" type="line"/>
      <point x="287" y="300"/>
      <point x="308" y="398"/>
      <point x="398" y="398" type="curve" smooth="yes"/>
      <point x="522" y="398"/>
      <point x="514" y="236"/>
      <point x="514" y="236" type="curve"/>
      <point x="514" y="142" type="line"/>
      <point x="488" y="142" type="line"/>
      <point x="409" y="1" type="line"/>
      <point x="787" y="1" type="line"/>
    </contour>
  </outline>
</glyph>
<glyph name="o" format="1">
  <advance width="610"/>
  <unicode hex="006F"/>
  <outline>
    <contour>
      <point x="30" y="251" type="curve" smooth="yes"/>
      <point x="30" y="104"/>
      <point x="154" y="-15"/>
      <point x="305" y="-15" type="curve" smooth="yes"/>
      <point x="456" y="-15"/>
      <point x="580" y="104"/>
      <point x="580" y="251" type="curve" smooth="yes"/>
      <point x="580" y="397"/>
      <point x="456" y="516"/>
      <point x="305" y="516" type="curve" smooth="yes"/>
      <point x="154" y="516"/>
      <point x="30" y="397"/>
    </contour>
    <contour>
      <point x="183" y="251" type="curve" smooth="yes"/>
      <point x="183" y="340"/>
      <point x="222" y="418"/>
      <point x="305" y="418" type="curve" smooth="yes"/>
      <point x="389" y="418"/>
      <point x="428" y="340"/>
      <point x="428" y="251" type="curve" smooth="yes"/>
      <point x="428" y="161"/>
      <point x="389" y="83"/>
      <point x="305" y="83" type="curve" smooth="yes"/>
      <point x="222" y="83"/>
      <point x="183" y="161"/>
    </contour>
  </outline>
</glyph>
<glyph name="p" format="1">
  <advance width="686"/>
  <unicode hex="0070"/>
  <outline>
    <contour>
      <point x="280" y="421" type="curve"/>
      <point x="280" y="500" type="line"/>
      <point x="142" y="500" type="line"/>
      <point x="10" y="500" type="line"/>
      <point x="114" y="360" type="line"/>
      <point x="142" y="360" type="line"/>
      <point x="142" y="-62" type="line"/>
      <point x="115" y="-62" type="line"/>
      <point x="10" y="-197" type="line"/>
      <point x="411" y="-197" type="line"/>
      <point x="305" y="-62" type="line"/>
      <point x="280" y="-62" type="line"/>
      <point x="280" y="83" type="line"/>
      <point x="295" y="40"/>
      <point x="338" y="9"/>
      <point x="383" y="1" type="curve" smooth="yes"/>
      <point x="566" y="-32"/>
      <point x="656" y="103"/>
      <point x="656" y="262" type="curve"/>
      <point x="656" y="262"/>
      <point x="659" y="507"/>
      <point x="425" y="507" type="curve" smooth="yes"/>
      <point x="357" y="507"/>
      <point x="299" y="469"/>
    </contour>
    <contour>
      <point x="280" y="251" type="curve"/>
      <point x="280" y="274" type="line"/>
      <point x="282" y="304"/>
      <point x="295" y="408"/>
      <point x="393" y="407" type="curve" smooth="yes"/>
      <point x="513" y="406"/>
      <point x="508" y="256"/>
      <point x="508" y="256" type="curve"/>
      <point x="508" y="256"/>
      <point x="515" y="96"/>
      <point x="391" y="96" type="curve" smooth="yes"/>
      <point x="308" y="96"/>
      <point x="282" y="178"/>
    </contour>
  </outline>
</glyph>
<glyph name="q" format="1">
  <advance width="650"/>
  <unicode hex="0071"/>
  <outline>
    <contour>
      <point x="574" y="-63" type="line"/>
      <point x="548" y="-63" type="line"/>
      <point x="548" y="511" type="line"/>
      <point x="440" y="427" type="line"/>
      <point x="412" y="472"/>
      <point x="359" y="511"/>
      <point x="262" y="511" type="curve" smooth="yes"/>
      <point x="26" y="511"/>
      <point x="30" y="262"/>
      <point x="30" y="262" type="curve"/>
      <point x="30" y="102"/>
      <point x="114" y="-32"/>
      <point x="299" y="0" type="curve" smooth="yes"/>
      <point x="344" y="9"/>
      <point x="392" y="41"/>
      <point x="408" y="84" type="curve"/>
      <point x="408" y="-63" type="line"/>
      <point x="382" y="-63" type="line"/>
      <point x="275" y="-200" type="line"/>
      <point x="680" y="-200" type="line"/>
    </contour>
    <contour>
      <point x="178" y="266" type="curve"/>
      <point x="178" y="266"/>
      <point x="173" y="417"/>
      <point x="294" y="418" type="curve" smooth="yes"/>
      <point x="392" y="418"/>
      <point x="406" y="315"/>
      <point x="408" y="284" type="curve"/>
      <point x="408" y="260" type="line" smooth="yes"/>
      <point x="406" y="187"/>
      <point x="381" y="104"/>
      <point x="296" y="104" type="curve" smooth="yes"/>
      <point x="171" y="104"/>
      <point x="178" y="266"/>
    </contour>
  </outline>
</glyph>
<glyph name="r" format="1">
  <advance width="554"/>
  <unicode hex="0072"/>
  <outline>
    <contour>
      <point x="285.16" y="432" type="curve"/>
      <point x="285.16" y="502" type="line"/>
      <point x="10.1602" y="502" type="line"/>
      <point x="117.16" y="360" type="line"/>
      <point x="145.16" y="360" type="line"/>
      <point x="145.16" y="141" type="line"/>
      <point x="117.16" y="141" type="line"/>
      <point x="10.1602" y="0" type="line"/>
      <point x="419.16" y="0" type="line"/>
      <point x="312.16" y="141" type="line"/>
      <point x="285.16" y="141" type="line"/>
      <point x="285.16" y="289" type="line" smooth="yes"/>
      <point x="285.16" y="343"/>
      <point x="289.16" y="412"/>
      <point x="354.16" y="416" type="curve" smooth="yes"/>
      <point x="405.16" y="419"/>
      <point x="435.16" y="349"/>
      <point x="393.16" y="320" type="curve" smooth="yes"/>
      <point x="390.16" y="318"/>
      <point x="383.16" y="314"/>
      <point x="375.16" y="313" type="curve"/>
      <point x="373.16" y="305" type="line"/>
      <point x="373.16" y="305"/>
      <point x="378.16" y="300"/>
      <point x="383.16" y="297" type="curve" smooth="yes"/>
      <point x="386.16" y="295"/>
      <point x="392.16" y="292"/>
      <point x="392.16" y="292" type="curve"/>
      <point x="419.16" y="281"/>
      <point x="484.16" y="269"/>
      <point x="523.16" y="329" type="curve" smooth="yes"/>
      <point x="580.16" y="415"/>
      <point x="513.16" y="512"/>
      <point x="408.16" y="513" type="curve" smooth="yes"/>
      <point x="350.16" y="514"/>
      <point x="298.16" y="477"/>
    </contour>
  </outline>
</glyph>
<glyph name="s" format="1">
  <advance width="586"/>
  <unicode hex="0073"/>
  <outline>
    <contour>
      <point x="198.908" y="387" type="curve" smooth="yes"/>
      <point x="210.908" y="423"/>
      <point x="381.908" y="434"/>
      <point x="424.908" y="344" type="curve"/>
      <point x="427.908" y="335"/>
      <point x="430.908" y="329"/>
      <point x="430.908" y="329" type="curve"/>
      <point x="523.908" y="369" type="line"/>
      <point x="496.908" y="444"/>
      <point x="523.908" y="525"/>
      <point x="523.908" y="525" type="curve"/>
      <point x="438.908" y="477" type="line"/>
      <point x="433.908" y="466"/>
      <point x="430.908" y="454"/>
      <point x="428.908" y="444" type="curve"/>
      <point x="394.908" y="477"/>
      <point x="336.908" y="511"/>
      <point x="243.908" y="511" type="curve" smooth="yes"/>
      <point x="52.9082" y="511"/>
      <point x="42.9082" y="398"/>
      <point x="42.9082" y="398" type="curve"/>
      <point x="42.9082" y="398"/>
      <point x="8.9082" y="278"/>
      <point x="205.908" y="219" type="curve" smooth="yes"/>
      <point x="308.908" y="188"/>
      <point x="329.908" y="188"/>
      <point x="373.908" y="168" type="curve" smooth="yes"/>
      <point x="395.908" y="158"/>
      <point x="401.908" y="143"/>
      <point x="396.908" y="129" type="curve" smooth="yes"/>
      <point x="384.908" y="91"/>
      <point x="193.908" y="61"/>
      <point x="120.908" y="210" type="curve"/>
      <point x="29.9082" y="172" type="line"/>
      <point x="56.9082" y="98"/>
      <point x="29.9082" y="0"/>
      <point x="29.9082" y="0" type="curve"/>
      <point x="115.908" y="48" type="line"/>
      <point x="117.908" y="52"/>
      <point x="118.908" y="59"/>
      <point x="120.908" y="64" type="curve"/>
      <point x="164.908" y="20"/>
      <point x="238.908" y="-10"/>
      <point x="342.908" y="-10" type="curve" smooth="yes"/>
      <point x="526.908" y="-10"/>
      <point x="550.908" y="110"/>
      <point x="550.908" y="110" type="curve"/>
      <point x="550.908" y="110"/>
      <point x="603.908" y="255"/>
      <point x="367.908" y="311" type="curve" smooth="yes"/>
      <point x="205.908" y="350"/>
      <point x="191.908" y="359"/>
    </contour>
  </outline>
</glyph>
<glyph name="t" format="1">
  <advance width="400"/>
  <unicode hex="0074"/>
  <outline>
    <contour>
      <point x="240" y="174" type="curve"/>
      <point x="240" y="407" type="line"/>
      <point x="319" y="407" type="line"/>
      <point x="390" y="500" type="line"/>
      <point x="240" y="500" type="line"/>
      <point x="240" y="708" type="line"/>
      <point x="0" y="407" type="line"/>
      <point x="93" y="407" type="line"/>
      <point x="93" y="204" type="line" smooth="yes"/>
      <point x="93" y="56"/>
      <point x="117" y="-14"/>
      <point x="239" y="-14" type="curve" smooth="yes"/>
      <point x="317" y="-14"/>
      <point x="362" y="54"/>
      <point x="363" y="90" type="curve"/>
      <point x="353" y="94" type="line"/>
      <point x="328" y="61"/>
      <point x="239" y="44"/>
    </contour>
  </outline>
</glyph>
<glyph name="u" format="1">
  <advance width="780"/>
  <unicode hex="0075"/>
  <outline>
    <contour>
      <point x="470" y="360" type="line"/>
      <point x="495" y="360" type="line"/>
      <point x="495" y="271" type="line" smooth="yes"/>
      <point x="495" y="198"/>
      <point x="483" y="102"/>
      <point x="394" y="102" type="curve" smooth="yes"/>
      <point x="273" y="102"/>
      <point x="284" y="265"/>
      <point x="284" y="265" type="curve"/>
      <point x="284" y="500" type="line"/>
      <point x="10" y="500" type="line"/>
      <point x="117" y="360" type="line"/>
      <point x="142" y="360" type="line"/>
      <point x="142" y="259" type="line" smooth="yes"/>
      <point x="142" y="104"/>
      <point x="208" y="-31"/>
      <point x="398" y="-6" type="curve" smooth="yes"/>
      <point x="444" y="0"/>
      <point x="487" y="45"/>
      <point x="495" y="86" type="curve"/>
      <point x="495" y="0" type="line"/>
      <point x="770" y="0" type="line"/>
      <point x="663" y="143" type="line"/>
      <point x="635" y="143" type="line"/>
      <point x="635" y="500" type="line"/>
      <point x="365" y="500" type="line"/>
    </contour>
  </outline>
</glyph>
<glyph name="v" format="1">
  <advance width="796"/>
  <unicode hex="0076"/>
  <outline>
    <contour>
      <point x="497" y="359" type="line"/>
      <point x="522" y="359" type="line"/>
      <point x="405" y="107" type="line"/>
      <point x="288" y="359" type="line"/>
      <point x="312" y="359" type="line"/>
      <point x="391" y="500" type="line"/>
      <point x="10" y="500" type="line"/>
      <point x="117" y="359" type="line"/>
      <point x="145" y="359" type="line"/>
      <point x="273" y="98" type="line"/>
      <point x="199" y="-2" type="line"/>
      <point x="321" y="-2" type="line"/>
      <point x="472" y="-2" type="line"/>
      <point x="608" y="-2" type="line"/>
      <point x="525" y="107" type="line"/>
      <point x="649" y="359" type="line"/>
      <point x="680" y="359" type="line"/>
      <point x="786" y="500" type="line"/>
      <point x="418" y="500" type="line"/>
    </contour>
  </outline>
</glyph>
<glyph name="w" format="1">
  <advance width="1175"/>
  <unicode hex="0077"/>
  <outline>
    <contour>
      <point x="876" y="360" type="line"/>
      <point x="900" y="360" type="line"/>
      <point x="782" y="107" type="line"/>
      <point x="666" y="359" type="line"/>
      <point x="691" y="359" type="line"/>
      <point x="771" y="500" type="line"/>
      <point x="418" y="500" type="line"/>
      <point x="417" y="500" type="line"/>
      <point x="418" y="500" type="line"/>
      <point x="497" y="359" type="line"/>
      <point x="521" y="359" type="line"/>
      <point x="406" y="107" type="line"/>
      <point x="288" y="360" type="line"/>
      <point x="311" y="360" type="line"/>
      <point x="391" y="500" type="line"/>
      <point x="10" y="500" type="line"/>
      <point x="117" y="360" type="line"/>
      <point x="146" y="360" type="line"/>
      <point x="271" y="102" type="line"/>
      <point x="193" y="-1" type="line"/>
      <point x="321" y="-1" type="line"/>
      <point x="471" y="-1" type="line"/>
      <point x="573" y="-1" type="line"/>
      <point x="516" y="102" type="line"/>
      <point x="584" y="265" type="line"/>
      <point x="654" y="97" type="line"/>
      <point x="598" y="-1" type="line"/>
      <point x="697" y="-1" type="line"/>
      <point x="850" y="-1" type="line"/>
      <point x="979" y="-1" type="line"/>
      <point x="901" y="102" type="line"/>
      <point x="1028" y="360" type="line"/>
      <point x="1058" y="360" type="line"/>
      <point x="1165" y="500" type="line"/>
      <point x="796" y="500" type="line"/>
    </contour>
  </outline>
</glyph>
<glyph name="x" format="1">
  <advance width="750"/>
  <unicode hex="0078"/>
  <outline>
    <contour>
      <point x="633" y="140" type="line"/>
      <point x="595" y="140" type="line"/>
      <point x="455" y="252" type="line"/>
      <point x="592" y="359" type="line"/>
      <point x="633" y="359" type="line"/>
      <point x="740" y="500" type="line"/>
      <point x="387" y="500" type="line"/>
      <point x="455" y="379" type="line"/>
      <point x="379" y="302" type="line"/>
      <point x="298" y="385" type="line"/>
      <point x="363" y="500" type="line"/>
      <point x="10" y="500" type="line"/>
      <point x="116" y="359" type="line"/>
      <point x="149" y="359" type="line"/>
      <point x="292" y="245" type="line"/>
      <point x="158" y="140" type="line"/>
      <point x="116" y="140" type="line"/>
      <point x="10" y="-1" type="line"/>
      <point x="363" y="-1" type="line"/>
      <point x="295" y="120" type="line"/>
      <point x="368" y="195" type="line"/>
      <point x="450" y="112" type="line"/>
      <point x="387" y="-1" type="line"/>
      <point x="740" y="-1" type="line"/>
    </contour>
  </outline>
</glyph>
<glyph name="y" format="1">
  <advance width="772"/>
  <unicode hex="0079"/>
  <outline>
    <contour>
      <point x="483" y="362" type="line"/>
      <point x="507" y="362" type="line"/>
      <point x="394" y="97" type="line"/>
      <point x="278" y="362" type="line"/>
      <point x="301" y="362" type="line"/>
      <point x="379" y="500" type="line"/>
      <point x="10" y="500" type="line"/>
      <point x="115" y="362" type="line"/>
      <point x="138" y="362" type="line"/>
      <point x="309" y="13" type="line"/>
      <point x="309" y="-11"/>
      <point x="304" y="-44"/>
      <point x="290" y="-67" type="curve" smooth="yes"/>
      <point x="270" y="-103"/>
      <point x="245" y="-113"/>
      <point x="216" y="-102" type="curve" smooth="yes"/>
      <point x="200" y="-97"/>
      <point x="185" y="-76"/>
      <point x="190" y="-56" type="curve" smooth="yes"/>
      <point x="195" y="-32"/>
      <point x="216" y="-18"/>
      <point x="248" y="-28" type="curve"/>
      <point x="253" y="-21" type="line"/>
      <point x="251" y="-11"/>
      <point x="240" y="1"/>
      <point x="240" y="1" type="curve"/>
      <point x="221" y="24"/>
      <point x="163" y="58"/>
      <point x="100" y="20" type="curve" smooth="yes"/>
      <point x="81" y="8"/>
      <point x="66" y="-15"/>
      <point x="66" y="-15" type="curve"/>
      <point x="47" y="-48"/>
      <point x="44" y="-83"/>
      <point x="64" y="-124" type="curve" smooth="yes"/>
      <point x="67" y="-130"/>
      <point x="71" y="-136"/>
      <point x="75" y="-142" type="curve" smooth="yes"/>
      <point x="103" y="-181"/>
      <point x="149" y="-200"/>
      <point x="209" y="-204" type="curve" smooth="yes"/>
      <point x="291" y="-210"/>
      <point x="376" y="-183"/>
      <point x="468" y="16" type="curve"/>
      <point x="632" y="362" type="line"/>
      <point x="657" y="362" type="line"/>
      <point x="762" y="500" type="line"/>
      <point x="405" y="500" type="line"/>
    </contour>
  </outline>
</glyph>
<glyph name="z" format="1">
  <advance width="587"/>
  <unicode hex="007A"/>
  <outline>
    <contour>
      <point x="471" y="140" type="line"/>
      <point x="267" y="140" type="line"/>
      <point x="563" y="500" type="line"/>
      <point x="401" y="500" type="line"/>
      <point x="23" y="500" type="line"/>
      <point x="22" y="500" type="line"/>
      <point x="25" y="497" type="line"/>
      <point x="129" y="362" type="line"/>
      <point x="308" y="362" type="line"/>
      <point x="10" y="0" type="line"/>
      <point x="576" y="0" type="line"/>
      <point x="577" y="0" type="line"/>
    </contour>
  </outline>
</glyph>
<glyph name="braceleft" format="1">
  <advance width="1860"/>
  <unicode hex="007B"/>
  <outline>
    <contour>
      <point x="753" y="803" type="line"/>
      <point x="653" y="948" type="line"/>
      <point x="1170" y="948" type="line"/>
      <point x="1061" y="803" type="line"/>
    </contour>
    <contour>
      <point x="607.025" y="424.754" type="line"/>
      <point x="515" y="174" type="line"/>
      <point x="357" y="558" type="line"/>
      <point x="407" y="558" type="line"/>
      <point x="482" y="702" type="line"/>
      <point x="32" y="702" type="line"/>
      <point x="136" y="558" type="line"/>
      <point x="199" y="558" type="line"/>
      <point x="443" y="2" type="line"/>
      <point x="451" y="2" type="line"/>
      <point x="581" y="2" type="line"/>
      <point x="588" y="2" type="line"/>
      <point x="764" y="424" type="line"/>
    </contour>
    <contour>
      <point x="981" y="557" type="line"/>
      <point x="981" y="-114" type="line"/>
      <point x="1053" y="-114" type="line"/>
      <point x="1168" y="-258" type="line"/>
      <point x="653" y="-258" type="line"/>
      <point x="766" y="-114" type="line"/>
      <point x="838" y="-114" type="line"/>
      <point x="838" y="557" type="line"/>
      <point x="630" y="557" type="line"/>
      <point x="555" y="700" type="line"/>
      <point x="1814" y="699" type="line"/>
      <point x="1694" y="556" type="line"/>
      <point x="1403" y="556" type="line"/>
      <point x="1403" y="423" type="line"/>
      <point x="1602" y="423" type="line"/>
      <point x="1602" y="291" type="line"/>
      <point x="1403" y="291" type="line"/>
      <point x="1403" y="143" type="line"/>
      <point x="1468" y="143" type="line"/>
      <point x="1588" y="0" type="line"/>
      <point x="1072" y="0" type="line"/>
      <point x="1191" y="143" type="line"/>
      <point x="1255" y="143" type="line"/>
      <point x="1255" y="556" type="line"/>
    </contour>
    <contour>
      <point x="764" y="424" type="move"/>
      <point x="764" y="424.272" type="line"/>
    </contour>
    <contour>
      <point x="764" y="424.272" type="move"/>
    </contour>
  </outline>
</glyph>
<glyph name="bar" format="1">
  <advance width="193"/>
  <unicode hex="007C"/>
  <outline>
    <contour>
      <point x="30" y="-59" type="line"/>
      <point x="30" y="751" type="line"/>
      <point x="163" y="751" type="line"/>
      <point x="163" y="-59" type="line"/>
    </contour>
  </outline>
</glyph>
<glyph name="exclamdown" format="1">
  <advance width="230"/>
  <unicode hex="00A1"/>
  <outline>
    <contour>
      <point x="121" y="511" type="curve" smooth="yes"/>
      <point x="164" y="511"/>
      <point x="200" y="474"/>
      <point x="200" y="431" type="curve" smooth="yes"/>
      <point x="199" y="386"/>
      <point x="162" y="351"/>
      <point x="119" y="351" type="curve" smooth="yes"/>
      <point x="74" y="351"/>
      <point x="39" y="389"/>
      <point x="40" y="434" type="curve" smooth="yes"/>
      <point x="40" y="477"/>
      <point x="76" y="511"/>
    </contour>
    <contour>
      <point x="54" y="274" type="line"/>
      <point x="30" y="-197" type="line"/>
      <point x="199" y="-197" type="line"/>
      <point x="182" y="274" type="line"/>
    </contour>
  </outline>
</glyph>
<glyph name="sterling" format="1">
  <advance width="709"/>
  <unicode hex="00A3"/>
  <outline>
    <contour>
      <point x="355" y="292" type="line"/>
      <point x="417" y="292" type="line"/>
      <point x="500" y="402" type="line"/>
      <point x="355" y="402" type="line"/>
      <point x="355" y="419" type="line" smooth="yes"/>
      <point x="355" y="495"/>
      <point x="374" y="571"/>
      <point x="429" y="587" type="curve" smooth="yes"/>
      <point x="489" y="605"/>
      <point x="529" y="584"/>
      <point x="559" y="540" type="curve"/>
      <point x="614" y="675" type="line"/>
      <point x="550" y="711"/>
      <point x="469" y="722"/>
      <point x="391" y="699" type="curve" smooth="yes"/>
      <point x="286" y="667"/>
      <point x="206" y="567"/>
      <point x="206" y="426" type="curve"/>
      <point x="206" y="426" type="line"/>
      <point x="206" y="402" type="line"/>
      <point x="144" y="402" type="line"/>
      <point x="61" y="292" type="line"/>
      <point x="206" y="292" type="line"/>
      <point x="206" y="142" type="line"/>
      <point x="148" y="142" type="line"/>
      <point x="30" y="0" type="line"/>
      <point x="560" y="0" type="line"/>
      <point x="679" y="142" type="line"/>
      <point x="355" y="142" type="line"/>
    </contour>
  </outline>
</glyph>
<glyph name="yen" format="1">
  <advance width="1013"/>
  <unicode hex="00A5"/>
  <outline>
    <contour>
      <point x="586" y="555" type="line"/>
      <point x="646" y="555" type="line"/>
      <point x="516" y="365" type="line"/>
      <point x="375" y="555" type="line"/>
      <point x="426" y="555" type="line"/>
      <point x="487" y="698" type="line"/>
      <point x="30" y="698" type="line"/>
      <point x="150" y="555" type="line"/>
      <point x="216" y="555" type="line"/>
      <point x="361" y="365" type="line"/>
      <point x="328" y="365" type="line"/>
      <point x="266" y="295" type="line"/>
      <point x="433" y="295" type="line"/>
      <point x="433" y="255" type="line"/>
      <point x="328" y="255" type="line"/>
      <point x="266" y="185" type="line"/>
      <point x="433" y="185" type="line"/>
      <point x="433" y="144" type="line"/>
      <point x="371" y="144" type="line"/>
      <point x="250" y="1" type="line"/>
      <point x="767" y="1" type="line"/>
      <point x="646" y="144" type="line"/>
      <point x="583" y="144" type="line"/>
      <point x="583" y="185" type="line"/>
      <point x="687" y="185" type="line"/>
      <point x="747" y="255" type="line"/>
      <point x="583" y="255" type="line"/>
      <point x="583" y="295" type="line"/>
      <point x="687" y="295" type="line"/>
      <point x="747" y="365" type="line"/>
      <point x="652" y="365" type="line"/>
      <point x="784" y="555" type="line"/>
      <point x="862" y="555" type="line"/>
      <point x="983" y="698" type="line"/>
      <point x="527" y="698" type="line"/>
    </contour>
  </outline>
</glyph>
<glyph name="section" format="1">
  <advance width="721"/>
  <unicode hex="00A7"/>
  <outline>
    <contour>
      <point x="435" y="464" type="curve" smooth="yes"/>
      <point x="225" y="515"/>
      <point x="216" y="543"/>
      <point x="224" y="578" type="curve" smooth="yes"/>
      <point x="237" y="637"/>
      <point x="466" y="654"/>
      <point x="537" y="518" type="curve"/>
      <point x="541" y="506"/>
      <point x="544" y="499"/>
      <point x="544" y="499" type="curve"/>
      <point x="654" y="551" type="line"/>
      <point x="619" y="648"/>
      <point x="654" y="751"/>
      <point x="654" y="751" type="curve"/>
      <point x="544" y="690" type="line"/>
      <point x="537" y="675"/>
      <point x="534" y="661"/>
      <point x="531" y="648" type="curve"/>
      <point x="486" y="690"/>
      <point x="413" y="733"/>
      <point x="293" y="733" type="curve" smooth="yes"/>
      <point x="47" y="733"/>
      <point x="36" y="595"/>
      <point x="36" y="595" type="curve"/>
      <point x="36" y="595"/>
      <point x="27" y="548"/>
      <point x="60" y="495" type="curve"/>
      <point x="60" y="495"/>
      <point x="70" y="478"/>
      <point x="95" y="455" type="curve"/>
      <point x="39" y="416"/>
      <point x="36" y="367"/>
      <point x="36" y="367" type="curve"/>
      <point x="36" y="367"/>
      <point x="27" y="320"/>
      <point x="60" y="267" type="curve"/>
      <point x="60" y="267"/>
      <point x="103" y="191"/>
      <point x="235" y="148" type="curve" smooth="yes"/>
      <point x="367" y="105"/>
      <point x="406" y="104"/>
      <point x="462" y="79" type="curve" smooth="yes"/>
      <point x="491" y="65"/>
      <point x="503" y="46"/>
      <point x="499" y="27" type="curve" smooth="yes"/>
      <point x="477" y="-57"/>
      <point x="221" y="-52"/>
      <point x="140" y="138" type="curve"/>
      <point x="30" y="85" type="line"/>
      <point x="65" y="-11"/>
      <point x="30" y="-137"/>
      <point x="30" y="-137" type="curve"/>
      <point x="140" y="-74" type="line"/>
      <point x="142" y="-69"/>
      <point x="145" y="-63"/>
      <point x="147" y="-57" type="curve"/>
      <point x="205" y="-114"/>
      <point x="293" y="-165"/>
      <point x="427" y="-165" type="curve" smooth="yes"/>
      <point x="666" y="-165"/>
      <point x="689" y="-23"/>
      <point x="689" y="-23" type="curve"/>
      <point x="689" y="-23"/>
      <point x="711" y="55"/>
      <point x="643" y="130" type="curve"/>
      <point x="683" y="166"/>
      <point x="689" y="205"/>
      <point x="689" y="205" type="curve"/>
      <point x="689" y="205"/>
      <point x="739" y="391"/>
    </contour>
    <contour>
      <point x="245" y="374" type="curve"/>
      <point x="368" y="333"/>
      <point x="407" y="332"/>
      <point x="462" y="307" type="curve" smooth="yes"/>
      <point x="491" y="293"/>
      <point x="503" y="274"/>
      <point x="499" y="256" type="curve" smooth="yes"/>
      <point x="495" y="244"/>
      <point x="487" y="233"/>
      <point x="476" y="225" type="curve"/>
      <point x="462" y="229"/>
      <point x="450" y="232"/>
      <point x="435" y="236" type="curve" smooth="yes"/>
      <point x="225" y="287"/>
      <point x="216" y="315"/>
      <point x="224" y="350" type="curve" smooth="yes"/>
      <point x="226" y="359"/>
      <point x="233" y="367"/>
    </contour>
  </outline>
</glyph>
<glyph name="dieresis" format="1">
  <advance width="396"/>
  <unicode hex="00A8"/>
  <outline>
    <contour>
      <point x="97" y="578" type="curve" smooth="yes"/>
      <point x="60" y="578"/>
      <point x="30" y="609"/>
      <point x="30" y="645" type="curve" smooth="yes"/>
      <point x="30" y="684"/>
      <point x="60" y="714"/>
      <point x="97" y="714" type="curve" smooth="yes"/>
      <point x="135" y="714"/>
      <point x="166" y="684"/>
      <point x="166" y="645" type="curve" smooth="yes"/>
      <point x="166" y="609"/>
      <point x="135" y="578"/>
    </contour>
    <contour>
      <point x="297" y="578" type="curve" smooth="yes"/>
      <point x="260" y="578"/>
      <point x="230" y="609"/>
      <point x="230" y="645" type="curve" smooth="yes"/>
      <point x="230" y="684"/>
      <point x="260" y="714"/>
      <point x="297" y="714" type="curve" smooth="yes"/>
      <point x="335" y="714"/>
      <point x="366" y="684"/>
      <point x="366" y="645" type="curve" smooth="yes"/>
      <point x="366" y="609"/>
      <point x="335" y="578"/>
    </contour>
  </outline>
</glyph>
<glyph name="copyright" format="1">
  <advance width="758"/>
  <unicode hex="00A9"/>
  <outline>
    <contour>
      <point x="468" y="394" type="curve"/>
      <point x="530" y="470" type="line"/>
      <point x="496" y="507"/>
      <point x="444" y="530"/>
      <point x="390" y="530" type="curve" smooth="yes"/>
      <point x="287" y="530"/>
      <point x="197" y="455"/>
      <point x="197" y="349" type="curve" smooth="yes"/>
      <point x="197" y="239"/>
      <point x="287" y="168"/>
      <point x="390" y="168" type="curve" smooth="yes"/>
      <point x="444" y="168"/>
      <point x="496" y="191"/>
      <point x="530" y="227" type="curve"/>
      <point x="468" y="303" type="line"/>
      <point x="467" y="303" type="line"/>
      <point x="456" y="269"/>
      <point x="430" y="248"/>
      <point x="390" y="248" type="curve" smooth="yes"/>
      <point x="333" y="248"/>
      <point x="303" y="288"/>
      <point x="303" y="349" type="curve" smooth="yes"/>
      <point x="303" y="410"/>
      <point x="333" y="449"/>
      <point x="390" y="449" type="curve" smooth="yes"/>
      <point x="431" y="449"/>
      <point x="457" y="428"/>
    </contour>
    <contour>
      <point x="21" y="349" type="curve" smooth="yes"/>
      <point x="21" y="151"/>
      <point x="181" y="-10"/>
      <point x="380" y="-10" type="curve" smooth="yes"/>
      <point x="578" y="-10"/>
      <point x="739" y="151"/>
      <point x="739" y="349" type="curve" smooth="yes"/>
      <point x="739" y="547"/>
      <point x="578" y="708"/>
      <point x="380" y="708" type="curve" smooth="yes"/>
      <point x="181" y="708"/>
      <point x="21" y="547"/>
    </contour>
    <contour>
      <point x="104" y="349" type="curve" smooth="yes"/>
      <point x="104" y="502"/>
      <point x="227" y="625"/>
      <point x="380" y="625" type="curve" smooth="yes"/>
      <point x="532" y="625"/>
      <point x="656" y="502"/>
      <point x="656" y="349" type="curve" smooth="yes"/>
      <point x="656" y="197"/>
      <point x="532" y="72"/>
      <point x="380" y="72" type="curve" smooth="yes"/>
      <point x="227" y="72"/>
      <point x="104" y="197"/>
    </contour>
  </outline>
</glyph>
<glyph name="guillemotleft" format="1">
  <advance width="585"/>
  <unicode hex="00AB"/>
  <outline>
    <contour>
      <point x="462" y="500" type="line"/>
      <point x="271" y="272" type="line"/>
      <point x="271" y="224" type="line"/>
      <point x="462" y="-2" type="line"/>
      <point x="555" y="-2" type="line"/>
      <point x="422" y="255" type="line"/>
      <point x="555" y="500" type="line"/>
    </contour>
    <contour>
      <point x="221" y="500" type="line"/>
      <point x="30" y="272" type="line"/>
      <point x="30" y="224" type="line"/>
      <point x="221" y="-2" type="line"/>
      <point x="314" y="-2" type="line"/>
      <point x="181" y="255" type="line"/>
      <point x="314" y="500" type="line"/>
    </contour>
  </outline>
</glyph>
<glyph name="registered" format="1">
  <advance width="760"/>
  <unicode hex="00AE"/>
  <outline>
    <contour>
      <point x="19" y="349" type="curve" smooth="yes"/>
      <point x="19" y="151"/>
      <point x="179" y="-10"/>
      <point x="378" y="-10" type="curve" smooth="yes"/>
      <point x="576" y="-10"/>
      <point x="737" y="151"/>
      <point x="737" y="349" type="curve" smooth="yes"/>
      <point x="737" y="547"/>
      <point x="576" y="708"/>
      <point x="378" y="708" type="curve" smooth="yes"/>
      <point x="179" y="708"/>
      <point x="19" y="547"/>
    </contour>
    <contour>
      <point x="102" y="349" type="curve" smooth="yes"/>
      <point x="102" y="502"/>
      <point x="225" y="625"/>
      <point x="378" y="625" type="curve" smooth="yes"/>
      <point x="530" y="625"/>
      <point x="654" y="502"/>
      <point x="654" y="349" type="curve" smooth="yes"/>
      <point x="654" y="197"/>
      <point x="530" y="72"/>
      <point x="378" y="72" type="curve" smooth="yes"/>
      <point x="225" y="72"/>
      <point x="102" y="197"/>
    </contour>
    <contour>
      <point x="593" y="200" type="line"/>
      <point x="543" y="262" type="line"/>
      <point x="515" y="262" type="line"/>
      <point x="465" y="340" type="line"/>
      <point x="494" y="353"/>
      <point x="515" y="378"/>
      <point x="515" y="416" type="curve" smooth="yes"/>
      <point x="515" y="446"/>
      <point x="498" y="468"/>
      <point x="481" y="480" type="curve" smooth="yes"/>
      <point x="452" y="502"/>
      <point x="387" y="500"/>
      <point x="387" y="500" type="curve"/>
      <point x="172" y="500" type="line"/>
      <point x="223" y="438" type="line"/>
      <point x="251" y="438" type="line"/>
      <point x="251" y="262" type="line"/>
      <point x="222" y="262" type="line"/>
      <point x="172" y="200" type="line"/>
      <point x="367" y="200" type="line"/>
      <point x="335" y="262" type="line"/>
      <point x="315" y="262" type="line"/>
      <point x="315" y="326" type="line"/>
      <point x="398" y="326" type="line" smooth="yes"/>
      <point x="400" y="326" type="line" smooth="yes"/>
      <point x="441" y="262" type="line"/>
      <point x="417" y="262" type="line"/>
      <point x="386" y="200" type="line"/>
    </contour>
    <contour>
      <point x="315" y="438" type="line"/>
      <point x="378" y="438" type="line"/>
      <point x="378" y="438"/>
      <point x="405" y="438"/>
      <point x="415" y="437" type="curve" smooth="yes"/>
      <point x="429" y="436"/>
      <point x="442" y="423"/>
      <point x="442" y="408" type="curve" smooth="yes"/>
      <point x="442" y="390"/>
      <point x="428" y="377"/>
      <point x="412" y="376" type="curve" smooth="yes"/>
      <point x="392" y="376" type="line" smooth="yes"/>
      <point x="315" y="376" type="line"/>
    </contour>
  </outline>
</glyph>
<glyph name="degree" format="1">
  <advance width="360"/>
  <unicode hex="00B0"/>
  <outline>
    <contour>
      <point x="122" y="483" type="curve" smooth="yes"/>
      <point x="104" y="490"/>
      <point x="88" y="501"/>
      <point x="74" y="515" type="curve" smooth="yes"/>
      <point x="61" y="529"/>
      <point x="50" y="545"/>
      <point x="42" y="562" type="curve" smooth="yes"/>
      <point x="34" y="581"/>
      <point x="30" y="600"/>
      <point x="30" y="621" type="curve" smooth="yes"/>
      <point x="30" y="641"/>
      <point x="34" y="660"/>
      <point x="42" y="679" type="curve" smooth="yes"/>
      <point x="50" y="697"/>
      <point x="61" y="713"/>
      <point x="74" y="726" type="curve" smooth="yes"/>
      <point x="88" y="740"/>
      <point x="104" y="751"/>
      <point x="122" y="758" type="curve" smooth="yes"/>
      <point x="140" y="766"/>
      <point x="160" y="770"/>
      <point x="180" y="770" type="curve" smooth="yes"/>
      <point x="200" y="770"/>
      <point x="220" y="766"/>
      <point x="238" y="758" type="curve" smooth="yes"/>
      <point x="256" y="751"/>
      <point x="272" y="740"/>
      <point x="286" y="726" type="curve" smooth="yes"/>
      <point x="299" y="713"/>
      <point x="310" y="697"/>
      <point x="318" y="679" type="curve" smooth="yes"/>
      <point x="326" y="660"/>
      <point x="330" y="641"/>
      <point x="330" y="621" type="curve" smooth="yes"/>
      <point x="330" y="600"/>
      <point x="326" y="581"/>
      <point x="318" y="562" type="curve" smooth="yes"/>
      <point x="310" y="545"/>
      <point x="299" y="529"/>
      <point x="286" y="515" type="curve" smooth="yes"/>
      <point x="272" y="501"/>
      <point x="256" y="490"/>
      <point x="238" y="483" type="curve" smooth="yes"/>
      <point x="220" y="475"/>
      <point x="200" y="471"/>
      <point x="180" y="471" type="curve" smooth="yes"/>
      <point x="160" y="471"/>
      <point x="140" y="475"/>
    </contour>
    <contour>
      <point x="120" y="621" type="curve" smooth="yes"/>
      <point x="120" y="587"/>
      <point x="147" y="560"/>
      <point x="180" y="560" type="curve" smooth="yes"/>
      <point x="213" y="560"/>
      <point x="240" y="587"/>
      <point x="240" y="621" type="curve" smooth="yes"/>
      <point x="240" y="654"/>
      <point x="213" y="681"/>
      <point x="180" y="681" type="curve" smooth="yes"/>
      <point x="147" y="681"/>
      <point x="120" y="654"/>
    </contour>
  </outline>
</glyph>
<glyph name="acute" format="1">
  <advance width="300"/>
  <unicode hex="00B4"/>
  <outline>
    <contour>
      <point x="150" y="500" type="move" name="_top"/>
    </contour>
    <contour>
      <point x="32" y="500" type="move" name="top"/>
    </contour>
    <contour>
      <point x="30" y="574" type="line"/>
      <point x="152" y="574" type="line"/>
      <point x="270" y="697" type="line"/>
      <point x="260" y="715" type="line"/>
      <point x="114" y="715" type="line"/>
    </contour>
  </outline>
</glyph>
<glyph name="periodcentered" format="1">
  <advance width="220"/>
  <unicode hex="00B7"/>
  <outline>
    <contour>
      <point x="109" y="173" type="curve" smooth="yes"/>
      <point x="66" y="173"/>
      <point x="30" y="209"/>
      <point x="30" y="252" type="curve" smooth="yes"/>
      <point x="30" y="297"/>
      <point x="66" y="333"/>
      <point x="109" y="333" type="curve" smooth="yes"/>
      <point x="154" y="333"/>
      <point x="190" y="297"/>
      <point x="190" y="252" type="curve" smooth="yes"/>
      <point x="190" y="209"/>
      <point x="154" y="173"/>
    </contour>
  </outline>
</glyph>
<glyph name="cedilla" format="1">
  <advance width="279"/>
  <unicode hex="00B8"/>
  <outline>
    <contour>
      <point x="139.5" y="0" type="move" name="_bottom"/>
    </contour>
    <contour>
      <point x="171" y="2" type="line"/>
      <point x="104" y="2" type="line"/>
      <point x="104" y="-79" type="line"/>
      <point x="129" y="-79" type="line" smooth="yes"/>
      <point x="177" y="-79"/>
      <point x="178" y="-124"/>
      <point x="178" y="-124" type="curve"/>
      <point x="179" y="-144"/>
      <point x="167" y="-166"/>
      <point x="145" y="-169" type="curve" smooth="yes"/>
      <point x="140" y="-170"/>
      <point x="134" y="-170"/>
      <point x="131" y="-170" type="curve" smooth="yes"/>
      <point x="110" y="-170"/>
      <point x="97" y="-155"/>
      <point x="97" y="-142" type="curve" smooth="yes"/>
      <point x="97" y="-133"/>
      <point x="101" y="-127"/>
      <point x="110" y="-126" type="curve" smooth="yes"/>
      <point x="113" y="-126" type="line" smooth="yes"/>
      <point x="116" y="-126"/>
      <point x="117" y="-127"/>
      <point x="118" y="-127" type="curve" smooth="yes"/>
      <point x="121" y="-124" type="line"/>
      <point x="117" y="-113"/>
      <point x="104" y="-103"/>
      <point x="78" y="-103" type="curve" smooth="yes"/>
      <point x="52" y="-103"/>
      <point x="30" y="-124"/>
      <point x="30" y="-152" type="curve" smooth="yes"/>
      <point x="30" y="-155"/>
      <point x="31" y="-159"/>
      <point x="31" y="-162" type="curve" smooth="yes"/>
      <point x="37" y="-193"/>
      <point x="67" y="-215"/>
      <point x="114" y="-220" type="curve" smooth="yes"/>
      <point x="123" y="-221"/>
      <point x="136" y="-221"/>
      <point x="145" y="-221" type="curve" smooth="yes"/>
      <point x="183" y="-219"/>
      <point x="249" y="-202"/>
      <point x="249" y="-134" type="curve"/>
      <point x="249" y="-134"/>
      <point x="249" y="-50"/>
      <point x="171" y="-48" type="curve"/>
    </contour>
  </outline>
</glyph>
<glyph name="guillemotright" format="1">
  <advance width="585"/>
  <unicode hex="00BB"/>
  <outline>
    <contour>
      <point x="123" y="502" type="line"/>
      <point x="314" y="274" type="line"/>
      <point x="314" y="226" type="line"/>
      <point x="123" y="0" type="line"/>
      <point x="30" y="0" type="line"/>
      <point x="163" y="257" type="line"/>
      <point x="30" y="502" type="line"/>
    </contour>
    <contour>
      <point x="364" y="502" type="line"/>
      <point x="555" y="274" type="line"/>
      <point x="555" y="226" type="line"/>
      <point x="364" y="0" type="line"/>
      <point x="271" y="0" type="line"/>
      <point x="404" y="257" type="line"/>
      <point x="271" y="502" type="line"/>
    </contour>
  </outline>
</glyph>
<glyph name="questiondown" format="1">
  <advance width="513"/>
  <unicode hex="00BF"/>
  <outline>
    <contour>
      <point x="270" y="524" type="curve" smooth="yes"/>
      <point x="313" y="524"/>
      <point x="349" y="488"/>
      <point x="349" y="445" type="curve" smooth="yes"/>
      <point x="349" y="400"/>
      <point x="313" y="364"/>
      <point x="270" y="364" type="curve" smooth="yes"/>
      <point x="225" y="364"/>
      <point x="189" y="400"/>
      <point x="189" y="445" type="curve" smooth="yes"/>
      <point x="189" y="488"/>
      <point x="225" y="524"/>
    </contour>
    <contour>
      <point x="324" y="135" type="curve" smooth="yes"/>
      <point x="185" y="101"/>
      <point x="180" y="8"/>
      <point x="180" y="8" type="curve"/>
      <point x="174" y="-47"/>
      <point x="195" y="-86"/>
      <point x="246" y="-95" type="curve" smooth="yes"/>
      <point x="256" y="-97"/>
      <point x="269" y="-97"/>
      <point x="274" y="-97" type="curve" smooth="yes"/>
      <point x="317" y="-95"/>
      <point x="344" y="-63"/>
      <point x="342" y="-37" type="curve" smooth="yes"/>
      <point x="341" y="-19"/>
      <point x="332" y="-8"/>
      <point x="313" y="-8" type="curve" smooth="yes"/>
      <point x="311" y="-8"/>
      <point x="304" y="-8"/>
      <point x="298" y="-10" type="curve"/>
      <point x="292" y="-3" type="line"/>
      <point x="298" y="18"/>
      <point x="324" y="41"/>
      <point x="375" y="44" type="curve" smooth="yes"/>
      <point x="426" y="47"/>
      <point x="480" y="11"/>
      <point x="483" y="-46" type="curve" smooth="yes"/>
      <point x="483" y="-53"/>
      <point x="483" y="-59"/>
      <point x="482" y="-66" type="curve" smooth="yes"/>
      <point x="473" y="-129"/>
      <point x="412" y="-182"/>
      <point x="319" y="-194" type="curve" smooth="yes"/>
      <point x="302" y="-196"/>
      <point x="275" y="-198"/>
      <point x="258" y="-198" type="curve" smooth="yes"/>
      <point x="159" y="-200"/>
      <point x="30" y="-157"/>
      <point x="30" y="-19" type="curve"/>
      <point x="30" y="-19"/>
      <point x="30" y="133"/>
      <point x="192" y="175" type="curve"/>
      <point x="207" y="304" type="line"/>
      <point x="329" y="304" type="line"/>
      <point x="342" y="141" type="line"/>
      <point x="342" y="141"/>
      <point x="331" y="138"/>
    </contour>
  </outline>
</glyph>
<glyph name="AE" format="1">
  <advance width="1201"/>
  <unicode hex="00C6"/>
  <outline>
    <contour>
      <point x="992" y="292" type="line"/>
      <point x="992" y="425" type="line"/>
      <point x="759" y="425" type="line"/>
      <point x="759" y="557" type="line"/>
      <point x="1053" y="557" type="line"/>
      <point x="1171" y="700" type="line"/>
      <point x="293" y="700" type="line"/>
      <point x="410" y="557" type="line"/>
      <point x="469" y="557" type="line"/>
      <point x="211" y="145" type="line"/>
      <point x="148" y="145" type="line"/>
      <point x="30" y="3" type="line"/>
      <point x="478" y="3" type="line"/>
      <point x="404" y="145" type="line"/>
      <point x="360" y="145" type="line"/>
      <point x="415" y="232" type="line"/>
      <point x="616" y="232" type="line"/>
      <point x="616" y="145" type="line"/>
      <point x="573" y="145" type="line"/>
      <point x="499" y="3" type="line"/>
      <point x="1051" y="3" type="line"/>
      <point x="1169" y="145" type="line"/>
      <point x="759" y="145" type="line"/>
      <point x="759" y="292" type="line"/>
    </contour>
    <contour>
      <point x="616" y="551" type="line"/>
      <point x="616" y="334" type="line"/>
      <point x="478" y="334" type="line"/>
    </contour>
  </outline>
</glyph>
<glyph name="ae" format="1">
  <advance width="870"/>
  <unicode hex="00E6"/>
  <outline>
    <contour>
      <point x="430" y="500" type="move" name="top"/>
    </contour>
    <contour>
      <point x="588" y="515" type="curve" smooth="yes"/>
      <point x="527" y="515"/>
      <point x="472" y="495"/>
      <point x="427" y="463" type="curve"/>
      <point x="387" y="507"/>
      <point x="329" y="515"/>
      <point x="283" y="516" type="curve" smooth="yes"/>
      <point x="270" y="516"/>
      <point x="238" y="515"/>
      <point x="220" y="512" type="curve" smooth="yes"/>
      <point x="131" y="503"/>
      <point x="71" y="460"/>
      <point x="58" y="404" type="curve" smooth="yes"/>
      <point x="57" y="398"/>
      <point x="57" y="390"/>
      <point x="57" y="383" type="curve" smooth="yes"/>
      <point x="57" y="327"/>
      <point x="102" y="299"/>
      <point x="155" y="299" type="curve" smooth="yes"/>
      <point x="204" y="299"/>
      <point x="230" y="320"/>
      <point x="238" y="340" type="curve"/>
      <point x="233" y="347" type="line"/>
      <point x="229" y="346"/>
      <point x="227" y="345"/>
      <point x="222" y="345" type="curve" smooth="yes"/>
      <point x="216" y="345" type="line" smooth="yes"/>
      <point x="199" y="347"/>
      <point x="190" y="358"/>
      <point x="190" y="376" type="curve" smooth="yes"/>
      <point x="190" y="398"/>
      <point x="215" y="417"/>
      <point x="257" y="417" type="curve" smooth="yes"/>
      <point x="262" y="417"/>
      <point x="276" y="417"/>
      <point x="285" y="415" type="curve" smooth="yes"/>
      <point x="333" y="409"/>
      <point x="346" y="367"/>
      <point x="344" y="321" type="curve" smooth="yes"/>
      <point x="344" y="303" type="line"/>
      <point x="191" y="303"/>
      <point x="30" y="245"/>
      <point x="30" y="125" type="curve" smooth="yes"/>
      <point x="30" y="31"/>
      <point x="124" y="-9"/>
      <point x="206" y="-9" type="curve" smooth="yes"/>
      <point x="331" y="-9"/>
      <point x="382" y="44"/>
      <point x="403" y="76" type="curve"/>
      <point x="452" y="20"/>
      <point x="517" y="-13"/>
      <point x="599" y="-13" type="curve" smooth="yes"/>
      <point x="675" y="-13"/>
      <point x="761" y="6"/>
      <point x="822" y="75" type="curve"/>
      <point x="736" y="177" type="line"/>
      <point x="716" y="130"/>
      <point x="669" y="100"/>
      <point x="606" y="100" type="curve" smooth="yes"/>
      <point x="532" y="100"/>
      <point x="482" y="147"/>
      <point x="477" y="218" type="curve"/>
      <point x="840" y="218" type="line"/>
      <point x="840" y="252" type="line" smooth="yes"/>
      <point x="840" y="398"/>
      <point x="738" y="515"/>
    </contour>
    <contour>
      <point x="259" y="105" type="curve" smooth="yes"/>
      <point x="220" y="103"/>
      <point x="195" y="121"/>
      <point x="195" y="147" type="curve" smooth="yes"/>
      <point x="195" y="193"/>
      <point x="262" y="234"/>
      <point x="344" y="228" type="curve"/>
      <point x="344" y="173" type="line"/>
      <point x="344" y="173"/>
      <point x="326" y="108"/>
    </contour>
    <contour>
      <point x="586" y="400" type="curve" smooth="yes"/>
      <point x="645" y="400"/>
      <point x="674" y="358"/>
      <point x="685" y="303" type="curve"/>
      <point x="479" y="303" type="line"/>
      <point x="491" y="358"/>
      <point x="523" y="400"/>
    </contour>
  </outline>
</glyph>
<glyph name="icircumflex" format="1">
  <advance width="476"/>
  <unicode hex="00EE"/>
  <outline>
    <component xOffset="20"/>
    <contour>
      <point x="30" y="0" type="line"/>
      <point x="446" y="0" type="line"/>
      <point x="339" y="139" type="line"/>
      <point x="307" y="139" type="line"/>
      <point x="307" y="501" type="line"/>
      <point x="30" y="501" type="line"/>
      <point x="147" y="351" type="line"/>
      <point x="169" y="351" type="line"/>
      <point x="169" y="139" type="line"/>
      <point x="147" y="139" type="line"/>
    </contour>
  </outline>
</glyph>
<glyph name="divide" format="1">
  <advance width="512"/>
  <unicode hex="00F7"/>
  <outline>
    <contour>
      <point x="30" y="213" type="line"/>
      <point x="482" y="213" type="line"/>
      <point x="482" y="334" type="line"/>
      <point x="30" y="334" type="line"/>
    </contour>
    <contour>
      <point x="249" y="-8" type="curve" smooth="yes"/>
      <point x="206" y="-8"/>
      <point x="170" y="28"/>
      <point x="170" y="71" type="curve" smooth="yes"/>
      <point x="170" y="116"/>
      <point x="206" y="152"/>
      <point x="249" y="152" type="curve" smooth="yes"/>
      <point x="294" y="152"/>
      <point x="330" y="116"/>
      <point x="330" y="71" type="curve" smooth="yes"/>
      <point x="330" y="28"/>
      <point x="294" y="-8"/>
    </contour>
    <contour>
      <point x="249" y="394" type="curve" smooth="yes"/>
      <point x="206" y="394"/>
      <point x="170" y="430"/>
      <point x="170" y="473" type="curve" smooth="yes"/>
      <point x="170" y="518"/>
      <point x="206" y="554"/>
      <point x="249" y="554" type="curve" smooth="yes"/>
      <point x="294" y="554"/>
      <point x="330" y="518"/>
      <point x="330" y="473" type="curve" smooth="yes"/>
      <point x="330" y="430"/>
      <point x="294" y="394"/>
    </contour>
  </outline>
</glyph>
<glyph name="OE" format="1">
  <advance width="1191"/>
  <unicode hex="0152"/>
  <outline>
    <contour>
      <point x="980" y="292" type="line"/>
      <point x="980" y="425" type="line"/>
      <point x="753" y="425" type="line"/>
      <point x="753" y="557" type="line"/>
      <point x="1043" y="557" type="line"/>
      <point x="1161" y="700" type="line"/>
      <point x="490" y="700" type="line"/>
      <point x="461" y="708"/>
      <point x="431" y="711"/>
      <point x="399" y="711" type="curve" smooth="yes"/>
      <point x="195" y="711"/>
      <point x="30" y="551"/>
      <point x="30" y="352" type="curve" smooth="yes"/>
      <point x="30" y="155"/>
      <point x="195" y="-7"/>
      <point x="399" y="-7" type="curve" smooth="yes"/>
      <point x="430" y="-7"/>
      <point x="458" y="-3"/>
      <point x="486" y="3" type="curve"/>
      <point x="1040" y="3" type="line"/>
      <point x="1158" y="147" type="line"/>
      <point x="753" y="147" type="line"/>
      <point x="753" y="292" type="line"/>
    </contour>
    <contour>
      <point x="399" y="571" type="curve" smooth="yes"/>
      <point x="513" y="571"/>
      <point x="603" y="474"/>
      <point x="603" y="352" type="curve" smooth="yes"/>
      <point x="603" y="231"/>
      <point x="513" y="133"/>
      <point x="399" y="133" type="curve" smooth="yes"/>
      <point x="287" y="133"/>
      <point x="195" y="231"/>
      <point x="195" y="352" type="curve" smooth="yes"/>
      <point x="195" y="474"/>
      <point x="287" y="571"/>
    </contour>
  </outline>
</glyph>
<glyph name="oe" format="1">
  <advance width="955"/>
  <unicode hex="0153"/>
  <outline>
    <contour>
      <point x="430" y="500" type="move" name="top"/>
    </contour>
    <contour>
      <point x="673" y="515" type="curve" smooth="yes"/>
      <point x="601" y="515"/>
      <point x="538" y="488"/>
      <point x="490" y="443" type="curve"/>
      <point x="442" y="488"/>
      <point x="376" y="515"/>
      <point x="304" y="515" type="curve" smooth="yes"/>
      <point x="153" y="515"/>
      <point x="30" y="398"/>
      <point x="30" y="251" type="curve" smooth="yes"/>
      <point x="30" y="105"/>
      <point x="153" y="-13"/>
      <point x="304" y="-13" type="curve" smooth="yes"/>
      <point x="380" y="-13"/>
      <point x="449" y="16"/>
      <point x="497" y="66" type="curve"/>
      <point x="546" y="16"/>
      <point x="607" y="-13"/>
      <point x="683" y="-13" type="curve" smooth="yes"/>
      <point x="760" y="-13"/>
      <point x="845" y="6"/>
      <point x="907" y="75" type="curve"/>
      <point x="822" y="178" type="line"/>
      <point x="803" y="130"/>
      <point x="754" y="99"/>
      <point x="690" y="99" type="curve" smooth="yes"/>
      <point x="619" y="99"/>
      <point x="567" y="147"/>
      <point x="561" y="219" type="curve"/>
      <point x="925" y="219" type="line"/>
      <point x="925" y="251" type="line" smooth="yes"/>
      <point x="925" y="398"/>
      <point x="824" y="515"/>
    </contour>
    <contour>
      <point x="182" y="251" type="curve" smooth="yes"/>
      <point x="182" y="340"/>
      <point x="221" y="399"/>
      <point x="304" y="399" type="curve" smooth="yes"/>
      <point x="387" y="399"/>
      <point x="425" y="340"/>
      <point x="425" y="251" type="curve" smooth="yes"/>
      <point x="425" y="162"/>
      <point x="387" y="103"/>
      <point x="304" y="103" type="curve" smooth="yes"/>
      <point x="221" y="103"/>
      <point x="182" y="162"/>
    </contour>
    <contour>
      <point x="672" y="400" type="curve" smooth="yes"/>
      <point x="730" y="400"/>
      <point x="759" y="364"/>
      <point x="770" y="309" type="curve"/>
      <point x="564" y="309" type="line"/>
      <point x="575" y="364"/>
      <point x="608" y="400"/>
    </contour>
  </outline>
</glyph>
<glyph name="circumflex" format="1">
  <advance width="405"/>
  <unicode hex="02C6"/>
  <outline>
    <contour>
      <point x="290" y="715" type="line"/>
      <point x="264" y="715" type="line"/>
      <point x="141" y="715" type="line"/>
      <point x="115" y="715" type="line"/>
      <point x="30" y="572" type="line"/>
      <point x="137" y="572" type="line"/>
      <point x="203" y="638" type="line"/>
      <point x="267" y="572" type="line"/>
      <point x="375" y="572" type="line"/>
    </contour>
  </outline>
</glyph>
<glyph name="endash" format="1">
  <advance width="442"/>
  <unicode hex="2013"/>
  <outline>
    <contour>
      <point x="30" y="215" type="line"/>
      <point x="412" y="215" type="line"/>
      <point x="412" y="336" type="line"/>
      <point x="30" y="336" type="line"/>
    </contour>
  </outline>
</glyph>
<glyph name="emdash" format="1">
  <advance width="862"/>
  <unicode hex="2014"/>
  <outline>
    <contour>
      <point x="30" y="215" type="line"/>
      <point x="832" y="215" type="line"/>
      <point x="832" y="336" type="line"/>
      <point x="30" y="336" type="line"/>
    </contour>
  </outline>
</glyph>
<glyph name="quoteleft" format="1">
  <advance width="221"/>
  <unicode hex="2018"/>
  <outline>
    <contour>
      <point x="191" y="682" type="line"/>
      <point x="191" y="682"/>
      <point x="132" y="636"/>
      <point x="130" y="595" type="curve"/>
      <point x="170" y="583"/>
      <point x="191" y="542"/>
      <point x="179" y="501" type="curve" smooth="yes"/>
      <point x="167" y="462"/>
      <point x="124" y="440"/>
      <point x="84" y="452" type="curve" smooth="yes"/>
      <point x="56" y="460"/>
      <point x="35" y="485"/>
      <point x="32" y="513" type="curve" smooth="yes"/>
      <point x="32" y="514"/>
      <point x="9" y="617"/>
      <point x="143" y="704" type="curve"/>
    </contour>
  </outline>
</glyph>
<glyph name="dagger" format="1">
  <advance width="637"/>
  <unicode hex="2020"/>
  <outline>
    <contour>
      <point x="607" y="589" type="line"/>
      <point x="483" y="487" type="line"/>
      <point x="483" y="466" type="line"/>
      <point x="383" y="466" type="line"/>
      <point x="383" y="579" type="line"/>
      <point x="424" y="579" type="line"/>
      <point x="524" y="700" type="line"/>
      <point x="383" y="700" type="line"/>
      <point x="251" y="700" type="line"/>
      <point x="111" y="700" type="line"/>
      <point x="213" y="579" type="line"/>
      <point x="252" y="579" type="line"/>
      <point x="252" y="466" type="line"/>
      <point x="151" y="466" type="line"/>
      <point x="151" y="487" type="line"/>
      <point x="30" y="589" type="line"/>
      <point x="30" y="229" type="line"/>
      <point x="151" y="331" type="line"/>
      <point x="151" y="351" type="line"/>
      <point x="252" y="351" type="line"/>
      <point x="252" y="64" type="line"/>
      <point x="213" y="64" type="line"/>
      <point x="111" y="-59" type="line"/>
      <point x="252" y="-59" type="line"/>
      <point x="383" y="-59" type="line"/>
      <point x="524" y="-59" type="line"/>
      <point x="424" y="64" type="line"/>
      <point x="383" y="64" type="line"/>
      <point x="383" y="351" type="line"/>
      <point x="483" y="351" type="line"/>
      <point x="483" y="331" type="line"/>
      <point x="607" y="229" type="line"/>
    </contour>
  </outline>
</glyph>
<glyph name="bullet" format="1">
  <advance width="410"/>
  <unicode hex="2022"/>
  <outline>
    <contour>
      <point x="203" y="72" type="curve" smooth="yes"/>
      <point x="109" y="72"/>
      <point x="30" y="151"/>
      <point x="30" y="245" type="curve" smooth="yes"/>
      <point x="30" y="344"/>
      <point x="109" y="422"/>
      <point x="203" y="422" type="curve" smooth="yes"/>
      <point x="302" y="422"/>
      <point x="380" y="344"/>
      <point x="380" y="245" type="curve" smooth="yes"/>
      <point x="380" y="151"/>
      <point x="302" y="72"/>
    </contour>
  </outline>
</glyph>
<glyph name="fraction" format="1">
  <advance width="517"/>
  <unicode hex="2044"/>
  <outline>
    <contour>
      <point x="30" y="-48" type="line"/>
      <point x="351" y="700" type="line"/>
      <point x="487" y="700" type="line"/>
      <point x="167" y="-48" type="line"/>
    </contour>
  </outline>
</glyph>
<glyph name="Euro" format="1">
  <advance width="605"/>
  <unicode hex="20AC"/>
  <outline>
    <contour>
      <point x="375" y="106" type="curve" smooth="yes"/>
      <point x="308" y="106"/>
      <point x="273" y="175"/>
      <point x="257" y="249" type="curve"/>
      <point x="401" y="249" type="line"/>
      <point x="431" y="328" type="line"/>
      <point x="247" y="328" type="line"/>
      <point x="247" y="346" type="line" smooth="yes"/>
      <point x="247" y="373" type="line"/>
      <point x="401" y="373" type="line"/>
      <point x="431" y="454" type="line"/>
      <point x="259" y="454" type="line"/>
      <point x="278" y="527"/>
      <point x="312" y="597"/>
      <point x="375" y="597" type="curve" smooth="yes"/>
      <point x="439" y="597"/>
      <point x="469" y="565"/>
      <point x="486" y="516" type="curve"/>
      <point x="575" y="627" type="line"/>
      <point x="526" y="680"/>
      <point x="452" y="712"/>
      <point x="371" y="712" type="curve" smooth="yes"/>
      <point x="249" y="712"/>
      <point x="139" y="610"/>
      <point x="104" y="454" type="curve"/>
      <point x="61" y="454" type="line"/>
      <point x="30" y="373" type="line"/>
      <point x="93" y="373" type="line"/>
      <point x="92" y="365"/>
      <point x="92" y="355"/>
      <point x="92" y="346" type="curve" smooth="yes"/>
      <point x="92" y="328" type="line"/>
      <point x="61" y="328" type="line"/>
      <point x="30" y="249" type="line"/>
      <point x="101" y="249" type="line"/>
      <point x="134" y="88"/>
      <point x="246" y="-11"/>
      <point x="371" y="-11" type="curve" smooth="yes"/>
      <point x="452" y="-11"/>
      <point x="526" y="23"/>
      <point x="575" y="75" type="curve"/>
      <point x="486" y="184" type="line"/>
      <point x="468" y="136"/>
      <point x="439" y="106"/>
    </contour>
  </outline>
</glyph>
<glyph name="infinity" format="1">
  <advance width="648"/>
  <unicode hex="221E"/>
  <outline>
    <contour>
      <point x="615" y="337" type="curve" smooth="yes"/>
      <point x="605" y="414"/>
      <point x="574" y="506"/>
      <point x="457" y="516" type="curve"/>
      <point x="457" y="516"/>
      <point x="393" y="525"/>
      <point x="344" y="478" type="curve"/>
      <point x="344" y="478"/>
      <point x="319" y="452"/>
      <point x="310" y="426" type="curve"/>
      <point x="305" y="468"/>
      <point x="254" y="520"/>
      <point x="187" y="516" type="curve" smooth="yes"/>
      <point x="19" y="508"/>
      <point x="30" y="301"/>
      <point x="30" y="301" type="curve"/>
      <point x="30" y="293"/>
      <point x="31" y="286"/>
      <point x="31" y="278" type="curve" smooth="yes"/>
      <point x="37" y="200"/>
      <point x="74" y="109"/>
      <point x="190" y="100" type="curve"/>
      <point x="190" y="100"/>
      <point x="255" y="90"/>
      <point x="303" y="137" type="curve"/>
      <point x="303" y="137"/>
      <point x="331" y="166"/>
      <point x="338" y="189" type="curve"/>
      <point x="343" y="147"/>
      <point x="394" y="96"/>
      <point x="461" y="99" type="curve" smooth="yes"/>
      <point x="628" y="107"/>
      <point x="617" y="305"/>
      <point x="617" y="314" type="curve" smooth="yes"/>
      <point x="617" y="316"/>
      <point x="616" y="329"/>
    </contour>
    <contour>
      <point x="206" y="218" type="curve"/>
      <point x="168" y="216"/>
      <point x="127" y="239"/>
      <point x="124" y="303" type="curve"/>
      <point x="124" y="303"/>
      <point x="115" y="392"/>
      <point x="195" y="402" type="curve" smooth="yes"/>
      <point x="232" y="407"/>
      <point x="271" y="387"/>
      <point x="290" y="354" type="curve"/>
      <point x="288" y="340"/>
      <point x="288" y="337"/>
      <point x="287" y="324" type="curve" smooth="yes"/>
      <point x="279" y="214"/>
      <point x="206" y="218"/>
    </contour>
    <contour>
      <point x="358" y="261" type="curve"/>
      <point x="359" y="275"/>
      <point x="360" y="278"/>
      <point x="361" y="291" type="curve" smooth="yes"/>
      <point x="368" y="401"/>
      <point x="441" y="398"/>
      <point x="441" y="398" type="curve"/>
      <point x="480" y="400"/>
      <point x="521" y="376"/>
      <point x="524" y="312" type="curve"/>
      <point x="524" y="312"/>
      <point x="532" y="224"/>
      <point x="453" y="213" type="curve" smooth="yes"/>
      <point x="416" y="208"/>
      <point x="377" y="229"/>
    </contour>
  </outline>
</glyph>
<glyph name="vtf" format="1">
  <advance width="1700"/>
  <outline>
    <contour>
      <point x="1670" y="638" type="line"/>
      <point x="506" y="638" type="line"/>
      <point x="570" y="504" type="line"/>
      <point x="799" y="504" type="line"/>
      <point x="799" y="-97" type="line"/>
      <point x="740" y="-97" type="line"/>
      <point x="655" y="-227" type="line"/>
      <point x="1083" y="-227" type="line"/>
      <point x="996" y="-97" type="line"/>
      <point x="936" y="-97" type="line"/>
      <point x="936" y="504" type="line"/>
      <point x="1181" y="504" type="line"/>
      <point x="1181" y="129" type="line"/>
      <point x="1123" y="129" type="line"/>
      <point x="1036" y="-4" type="line"/>
      <point x="1463" y="-4" type="line"/>
      <point x="1375" y="129" type="line"/>
      <point x="1318" y="129" type="line"/>
      <point x="1318" y="290" type="line"/>
      <point x="1522" y="290" type="line"/>
      <point x="1522" y="413" type="line"/>
      <point x="1318" y="413" type="line"/>
      <point x="1318" y="504" type="line"/>
      <point x="1584" y="504" type="line"/>
    </contour>
    <contour>
      <point x="438" y="156" type="line"/>
      <point x="306" y="504" type="line"/>
      <point x="351" y="504" type="line"/>
      <point x="420" y="638" type="line"/>
      <point x="30" y="638" type="line"/>
      <point x="103" y="504" type="line"/>
      <point x="160" y="504" type="line"/>
      <point x="372" y="-4" type="line"/>
      <point x="378" y="-4" type="line"/>
      <point x="497" y="-4" type="line"/>
      <point x="505" y="-4" type="line"/>
      <point x="706" y="413" type="line"/>
      <point x="569" y="413" type="line"/>
    </contour>
    <contour>
      <point x="1095" y="851" type="line"/>
      <point x="636" y="851" type="line"/>
      <point x="704" y="722" type="line"/>
      <point x="1019" y="722" type="line"/>
    </contour>
  </outline>
</glyph>
